<svg width="468" height="378" viewBox="0 0 468 378" fill="none" xmlns="http://www.w3.org/2000/svg">
<circle cx="97.9772" cy="161.977" r="9.5" transform="rotate(-30 97.9772 161.977)" fill="#ABABAB" fill-opacity="0.17"/>
<rect x="22" y="119.537" width="25" height="25" transform="rotate(-17.5474 22 119.537)" fill="#EDEDED"/>
<path d="M81.6238 82.4016L85.8784 88.7337L93.2153 86.6441L88.5078 92.6472L92.7624 98.9793L85.5985 96.3573L80.891 102.36L81.1709 94.7368L74.007 92.1147L81.3439 90.0251L81.6238 82.4016Z" fill="#EDEDED"/>
<rect x="46.5" y="156" width="30" height="5" rx="2.5" transform="rotate(30 46.5 156)" fill="#EDEDED"/>
<circle cx="52.5" cy="97.5" r="2.5" transform="rotate(-33.6232 52.5 97.5)" fill="#EDEDED"/>
<rect x="66.3337" y="105.802" width="8" height="8" transform="rotate(-10.5779 66.3337 105.802)" fill="#EDEDED"/>
<circle cx="104.5" cy="118.5" r="6.5" transform="rotate(-18.4543 104.5 118.5)" fill="#EDEDED"/>
<rect x="25" y="96" width="15" height="2" rx="1" transform="rotate(30 25 96)" fill="#EDEDED"/>
<path d="M74.2952 125.759L87.349 138.812L69.5172 143.59L74.2952 125.759Z" fill="#EDEDED"/>
<path d="M67.1157 92.4505L58.0389 85.7901L68.3454 81.2595L67.1157 92.4505Z" fill="#EDEDED"/>
<rect x="73" y="68.9651" width="9" height="9" transform="rotate(-33.4821 73 68.9651)" fill="#EDEDED"/>
<circle cx="179.977" cy="122.977" r="9.5" transform="rotate(-30 179.977 122.977)" fill="#ABABAB" fill-opacity="0.17"/>
<rect x="104" y="80.5374" width="25" height="25" transform="rotate(-17.5474 104 80.5374)" fill="#EDEDED"/>
<path d="M163.624 43.4016L167.878 49.7337L175.215 47.6441L170.508 53.6472L174.762 59.9793L167.598 57.3573L162.891 63.3603L163.171 55.7368L156.007 53.1147L163.344 51.0251L163.624 43.4016Z" fill="#EDEDED"/>
<rect x="128.5" y="117" width="30" height="5" rx="2.5" transform="rotate(30 128.5 117)" fill="#EDEDED"/>
<circle cx="134.5" cy="58.5" r="2.5" transform="rotate(-33.6232 134.5 58.5)" fill="#EDEDED"/>
<rect x="148.334" y="66.8022" width="8" height="8" transform="rotate(-10.5779 148.334 66.8022)" fill="#EDEDED"/>
<circle cx="186.5" cy="79.5" r="6.5" transform="rotate(-18.4543 186.5 79.5)" fill="#EDEDED"/>
<rect x="107" y="57" width="15" height="2" rx="1" transform="rotate(30 107 57)" fill="#EDEDED"/>
<path d="M156.295 86.7586L169.349 99.8124L151.517 104.59L156.295 86.7586Z" fill="#EDEDED"/>
<path d="M149.116 53.4505L140.039 46.7901L150.345 42.2595L149.116 53.4505Z" fill="#EDEDED"/>
<rect x="155" y="29.9651" width="9" height="9" transform="rotate(-33.4821 155 29.9651)" fill="#EDEDED"/>
<circle cx="275.977" cy="134.977" r="9.5" transform="rotate(-30 275.977 134.977)" fill="#ABABAB" fill-opacity="0.17"/>
<rect x="200" y="92.5374" width="25" height="25" transform="rotate(-17.5474 200 92.5374)" fill="#EDEDED"/>
<path d="M259.624 55.4016L263.878 61.7337L271.215 59.6441L266.508 65.6472L270.762 71.9793L263.598 69.3573L258.891 75.3603L259.171 67.7368L252.007 65.1147L259.344 63.0251L259.624 55.4016Z" fill="#EDEDED"/>
<rect x="224.5" y="129" width="30" height="5" rx="2.5" transform="rotate(30 224.5 129)" fill="#EDEDED"/>
<circle cx="230.5" cy="70.5" r="2.5" transform="rotate(-33.6232 230.5 70.5)" fill="#EDEDED"/>
<rect x="244.334" y="78.8022" width="8" height="8" transform="rotate(-10.5779 244.334 78.8022)" fill="#EDEDED"/>
<circle cx="282.5" cy="91.5" r="6.5" transform="rotate(-18.4543 282.5 91.5)" fill="#EDEDED"/>
<rect x="203" y="69" width="15" height="2" rx="1" transform="rotate(30 203 69)" fill="#EDEDED"/>
<path d="M252.295 98.7586L265.349 111.812L247.517 116.59L252.295 98.7586Z" fill="#EDEDED"/>
<path d="M245.116 65.4505L236.039 58.7901L246.345 54.2595L245.116 65.4505Z" fill="#EDEDED"/>
<rect x="251" y="41.9651" width="9" height="9" transform="rotate(-33.4821 251 41.9651)" fill="#EDEDED"/>
<circle cx="356.977" cy="97.9772" r="9.5" transform="rotate(-30 356.977 97.9772)" fill="#ABABAB" fill-opacity="0.17"/>
<rect x="281" y="55.5374" width="25" height="25" transform="rotate(-17.5474 281 55.5374)" fill="#EDEDED"/>
<path d="M340.624 18.4016L344.878 24.7337L352.215 22.6441L347.508 28.6472L351.762 34.9793L344.598 32.3573L339.891 38.3603L340.171 30.7368L333.007 28.1147L340.344 26.0251L340.624 18.4016Z" fill="#EDEDED"/>
<rect x="305.5" y="92" width="30" height="5" rx="2.5" transform="rotate(30 305.5 92)" fill="#EDEDED"/>
<circle cx="311.5" cy="33.5" r="2.5" transform="rotate(-33.6232 311.5 33.5)" fill="#EDEDED"/>
<rect x="325.334" y="41.8022" width="8" height="8" transform="rotate(-10.5779 325.334 41.8022)" fill="#EDEDED"/>
<circle cx="363.5" cy="54.5" r="6.5" transform="rotate(-18.4543 363.5 54.5)" fill="#EDEDED"/>
<rect x="284" y="32" width="15" height="2" rx="1" transform="rotate(30 284 32)" fill="#EDEDED"/>
<path d="M333.295 61.7586L346.349 74.8124L328.517 79.5905L333.295 61.7586Z" fill="#EDEDED"/>
<path d="M326.116 28.4505L317.039 21.7901L327.345 17.2595L326.116 28.4505Z" fill="#EDEDED"/>
<rect x="332" y="4.96509" width="9" height="9" transform="rotate(-33.4821 332 4.96509)" fill="#EDEDED"/>
<circle cx="392.899" cy="90.3457" r="9.5" transform="rotate(175.089 392.899 90.3457)" fill="#ABABAB" fill-opacity="0.17"/>
<rect x="443.713" y="160.997" width="25" height="25" transform="rotate(-172.459 443.713 160.997)" fill="#EDEDED"/>
<path d="M373.968 169.348L372.8 161.809L365.269 160.59L372.078 157.15L370.909 149.611L376.286 155.023L383.094 151.583L379.608 158.368L384.985 163.781L377.454 162.562L373.968 169.348Z" fill="#EDEDED"/>
<rect x="436.985" y="117.586" width="30" height="5" rx="2.5" transform="rotate(-124.911 436.985 117.586)" fill="#EDEDED"/>
<circle cx="406.746" cy="168.023" r="2.5" transform="rotate(171.466 406.746 168.023)" fill="#EDEDED"/>
<rect x="397.738" y="154.638" width="8" height="8" transform="rotate(-165.489 397.738 154.638)" fill="#EDEDED"/>
<circle cx="368.556" cy="126.955" r="6.5" transform="rotate(-173.366 368.556 126.955)" fill="#EDEDED"/>
<rect x="431.015" y="181.042" width="15" height="2" rx="1" transform="rotate(-124.911 431.015 181.042)" fill="#EDEDED"/>
<path d="M398.989 133.189L392.702 115.832L410.878 119.065L398.989 133.189Z" fill="#EDEDED"/>
<path d="M391.368 166.399L396.764 176.28L385.509 176.012L391.368 166.399Z" fill="#EDEDED"/>
<rect x="376.081" y="185.173" width="9" height="9" transform="rotate(171.607 376.081 185.173)" fill="#EDEDED"/>
<circle cx="369.845" cy="212.037" r="9.5" transform="rotate(149.456 369.845 212.037)" fill="#ABABAB" fill-opacity="0.17"/>
<rect x="446.222" y="253.753" width="25" height="25" transform="rotate(161.908 446.222 253.753)" fill="#EDEDED"/>
<path d="M386.953 291.454L382.639 285.163L375.322 287.322L379.972 281.274L375.658 274.983L382.846 277.537L387.496 271.489L387.289 279.115L394.477 281.669L387.161 283.828L386.953 291.454Z" fill="#EDEDED"/>
<rect x="421.376" y="217.525" width="30" height="5" rx="2.5" transform="rotate(-150.544 421.376 217.525)" fill="#EDEDED"/>
<circle cx="415.932" cy="276.08" r="2.5" transform="rotate(145.832 415.932 276.08)" fill="#EDEDED"/>
<rect x="402.021" y="267.909" width="8" height="8" transform="rotate(168.878 402.021 267.909)" fill="#EDEDED"/>
<circle cx="363.735" cy="255.575" r="6.5" transform="rotate(161.001 363.735 255.575)" fill="#EDEDED"/>
<rect x="443.445" y="277.318" width="15" height="2" rx="1" transform="rotate(-150.544 443.445 277.318)" fill="#EDEDED"/>
<path d="M393.87 248.029L380.692 235.1L398.478 230.153L393.87 248.029Z" fill="#EDEDED"/>
<path d="M401.365 281.268L410.505 287.842L400.242 292.47L401.365 281.268Z" fill="#EDEDED"/>
<rect x="395.704" y="304.808" width="9" height="9" transform="rotate(145.974 395.704 304.808)" fill="#EDEDED"/>
<circle cx="288.219" cy="251.815" r="9.5" transform="rotate(149.456 288.219 251.815)" fill="#ABABAB" fill-opacity="0.17"/>
<rect x="364.596" y="293.531" width="25" height="25" transform="rotate(161.908 364.596 293.531)" fill="#EDEDED"/>
<path d="M305.327 331.231L301.013 324.94L293.696 327.099L298.346 321.052L294.032 314.76L301.22 317.314L305.87 311.267L305.663 318.892L312.852 321.446L305.535 323.605L305.327 331.231Z" fill="#EDEDED"/>
<rect x="339.75" y="257.303" width="30" height="5" rx="2.5" transform="rotate(-150.544 339.75 257.303)" fill="#EDEDED"/>
<circle cx="334.307" cy="315.857" r="2.5" transform="rotate(145.832 334.307 315.857)" fill="#EDEDED"/>
<rect x="320.395" y="307.686" width="8" height="8" transform="rotate(168.878 320.395 307.686)" fill="#EDEDED"/>
<circle cx="282.109" cy="295.352" r="6.5" transform="rotate(161.001 282.109 295.352)" fill="#EDEDED"/>
<rect x="361.819" y="317.096" width="15" height="2" rx="1" transform="rotate(-150.544 361.819 317.096)" fill="#EDEDED"/>
<path d="M312.244 287.807L299.066 274.877L316.852 269.93L312.244 287.807Z" fill="#EDEDED"/>
<path d="M319.739 321.045L328.879 327.619L318.616 332.247L319.739 321.045Z" fill="#EDEDED"/>
<rect x="314.078" y="344.585" width="9" height="9" transform="rotate(145.974 314.078 344.585)" fill="#EDEDED"/>
<circle cx="192.109" cy="240.727" r="9.5" transform="rotate(149.456 192.109 240.727)" fill="#ABABAB" fill-opacity="0.17"/>
<rect x="268.486" y="282.443" width="25" height="25" transform="rotate(161.908 268.486 282.443)" fill="#EDEDED"/>
<path d="M209.218 320.144L204.903 313.852L197.586 316.012L202.237 309.964L197.922 303.673L205.111 306.227L209.761 300.179L209.553 307.805L216.742 310.359L209.425 312.518L209.218 320.144Z" fill="#EDEDED"/>
<rect x="243.641" y="246.215" width="30" height="5" rx="2.5" transform="rotate(-150.544 243.641 246.215)" fill="#EDEDED"/>
<circle cx="238.197" cy="304.769" r="2.5" transform="rotate(145.832 238.197 304.769)" fill="#EDEDED"/>
<rect x="224.285" y="296.599" width="8" height="8" transform="rotate(168.878 224.285 296.599)" fill="#EDEDED"/>
<circle cx="186" cy="284.264" r="6.5" transform="rotate(161.001 186 284.264)" fill="#EDEDED"/>
<rect x="265.71" y="306.008" width="15" height="2" rx="1" transform="rotate(-150.544 265.71 306.008)" fill="#EDEDED"/>
<path d="M216.134 276.719L202.957 263.79L220.742 258.843L216.134 276.719Z" fill="#EDEDED"/>
<path d="M223.63 309.958L232.769 316.531L222.506 321.16L223.63 309.958Z" fill="#EDEDED"/>
<rect x="217.969" y="333.498" width="9" height="9" transform="rotate(145.974 217.969 333.498)" fill="#EDEDED"/>
<circle cx="111.464" cy="278.495" r="9.5" transform="rotate(149.456 111.464 278.495)" fill="#ABABAB" fill-opacity="0.17"/>
<rect x="187.841" y="320.211" width="25" height="25" transform="rotate(161.908 187.841 320.211)" fill="#EDEDED"/>
<path d="M128.573 357.912L124.258 351.62L116.942 353.78L121.592 347.732L117.277 341.441L124.466 343.994L129.116 337.947L128.909 345.573L136.097 348.127L128.78 350.286L128.573 357.912Z" fill="#EDEDED"/>
<rect x="162.996" y="283.983" width="30" height="5" rx="2.5" transform="rotate(-150.544 162.996 283.983)" fill="#EDEDED"/>
<circle cx="157.552" cy="342.537" r="2.5" transform="rotate(145.832 157.552 342.537)" fill="#EDEDED"/>
<rect x="143.64" y="334.367" width="8" height="8" transform="rotate(168.878 143.64 334.367)" fill="#EDEDED"/>
<circle cx="105.355" cy="322.032" r="6.5" transform="rotate(161.001 105.355 322.032)" fill="#EDEDED"/>
<rect x="185.065" y="343.776" width="15" height="2" rx="1" transform="rotate(-150.544 185.065 343.776)" fill="#EDEDED"/>
<path d="M135.489 314.487L122.312 301.558L140.098 296.611L135.489 314.487Z" fill="#EDEDED"/>
<path d="M142.985 347.725L152.125 354.299L141.862 358.928L142.985 347.725Z" fill="#EDEDED"/>
<rect x="137.324" y="371.266" width="9" height="9" transform="rotate(145.974 137.324 371.266)" fill="#EDEDED"/>
<circle cx="75.6165" cy="286.467" r="9.5" transform="rotate(-5.45554 75.6165 286.467)" fill="#ABABAB" fill-opacity="0.17"/>
<rect x="24.1343" y="216.302" width="25" height="25" transform="rotate(6.99709 24.1343 216.302)" fill="#EDEDED"/>
<path d="M93.7964 207.289L95.0362 214.816L102.578 215.963L95.8024 219.469L97.0422 226.996L91.6148 221.635L84.839 225.14L88.2604 218.322L82.833 212.961L90.375 214.108L93.7964 207.289Z" fill="#EDEDED"/>
<rect x="31.2737" y="259.647" width="30" height="5" rx="2.5" transform="rotate(54.5445 31.2737 259.647)" fill="#EDEDED"/>
<circle cx="61.0324" cy="208.925" r="2.5" transform="rotate(-9.07878 61.0324 208.925)" fill="#EDEDED"/>
<rect x="70.1675" y="222.224" width="8" height="8" transform="rotate(13.9666 70.1675 222.224)" fill="#EDEDED"/>
<circle cx="99.6101" cy="249.628" r="6.5" transform="rotate(6.09014 99.6101 249.628)" fill="#EDEDED"/>
<rect x="36.6404" y="196.137" width="15" height="2" rx="1" transform="rotate(54.5445 36.6404 196.137)" fill="#EDEDED"/>
<path d="M69.1197 243.684L75.5715 260.981L57.3661 257.92L69.1197 243.684Z" fill="#EDEDED"/>
<path d="M76.425 210.403L70.9351 200.574L82.1923 200.734L76.425 210.403Z" fill="#EDEDED"/>
<rect x="91.5334" y="191.484" width="9" height="9" transform="rotate(-8.9376 91.5334 191.484)" fill="#EDEDED"/>
<g filter="url(#filter0_d)">
<rect x="101" y="124" width="271" height="209" rx="30" fill="white"/>
</g>
<g clip-path="url(#clip0)">
<path d="M181.455 301.257V223.871L157.49 201.915L136 189.731V287.6C136 295.156 142.113 301.257 149.637 301.257H181.455V301.257Z" fill="#4285F4"/>
<path d="M290.545 301.257H322.363C329.909 301.257 336 295.134 336 287.6V189.732L311.659 203.687L290.545 223.871V301.257V301.257Z" fill="#34A853"/>
<path d="M181.455 223.871L178.194 193.634L181.455 164.695L236 205.664L290.545 164.695L294.194 192.072L290.545 223.871L236 264.84L181.455 223.871Z" fill="#EA4335"/>
<path d="M290.545 164.695V223.871L336 189.731V171.523C336 154.635 316.75 145.008 303.274 155.136L290.545 164.695Z" fill="#FBBC04"/>
<path d="M136 189.731L156.905 205.434L181.455 223.871V164.695L168.727 155.136C155.227 145.007 136 154.635 136 171.522V189.73V189.731Z" fill="#C5221F"/>
</g>
<defs>
<filter id="filter0_d" x="81" y="119" width="311" height="249" filterUnits="userSpaceOnUse" color-interpolation-filters="sRGB">
<feFlood flood-opacity="0" result="BackgroundImageFix"/>
<feColorMatrix in="SourceAlpha" type="matrix" values="0 0 0 0 0 0 0 0 0 0 0 0 0 0 0 0 0 0 127 0"/>
<feOffset dy="15"/>
<feGaussianBlur stdDeviation="10"/>
<feColorMatrix type="matrix" values="0 0 0 0 0.120833 0 0 0 0 0.120833 0 0 0 0 0.120833 0 0 0 0.1 0"/>
<feBlend mode="normal" in2="BackgroundImageFix" result="effect1_dropShadow"/>
<feBlend mode="normal" in="SourceGraphic" in2="effect1_dropShadow" result="shape"/>
</filter>
<clipPath id="clip0">
<rect width="200" height="151" fill="white" transform="translate(136 151)"/>
</clipPath>
</defs>
</svg>
