<svg width="787" height="880" viewBox="0 0 787 880" fill="none" xmlns="http://www.w3.org/2000/svg">
<g clip-path="url(#clip0)">
<rect x="-5" y="67" width="796" height="785" rx="392.5" fill="url(#paint0_linear)"/>
<g filter="url(#filter0_d)">
<path d="M609 460C609 573.771 516.771 666 403 666C289.229 666 197 573.771 197 460C197 346.229 289.229 254 403 254C516.771 254 609 346.229 609 460Z" fill="#FFE785"/>
</g>
<g filter="url(#filter1_d)">
<ellipse cx="403.5" cy="459" rx="117.5" ry="117" fill="#FFDB6B"/>
</g>
<path d="M353.063 357.527V302.404H293.436M410.052 357.292V261.766H331.956V117.685H410.052M462.292 378.403V234.322M331.956 507.706V572.094H273.385V628.038M387.89 529.873V719.342H331.956V774.758M462.292 501.373V581.066H533V687.148H476.011" stroke="#855B0B" stroke-opacity="0.67" stroke-linecap="round" stroke-dasharray="2 5"/>
<path fill-rule="evenodd" clip-rule="evenodd" d="M423.414 107.114L423.384 107.112C421.994 107.048 420.033 108.719 419.309 109.927C418.513 111.013 418.498 112.456 419.193 114.124L419.302 114.376C421.132 118.882 427.997 125.739 432.485 127.616C434.203 128.419 435.733 128.434 436.939 127.566C437.999 126.96 439.738 124.943 439.688 123.51C439.64 122.921 439.366 122.44 438.941 122.002L438.837 121.899L438.548 121.632C437.501 120.696 435.689 119.363 435.128 119.245C434.47 119.108 434.024 119.231 433.32 119.619L433.058 119.768C432.557 120.057 432.378 120.106 432.141 120.02C429.637 118.992 427.871 117.217 426.836 114.671C426.769 114.482 426.802 114.318 427.02 113.918L427.134 113.715C427.609 112.886 427.768 112.418 427.618 111.696L427.592 111.603C427.347 110.889 425.845 108.876 425.01 107.999L424.876 107.863C424.441 107.436 423.963 107.162 423.414 107.114ZM423.298 108.656L423.355 108.667C423.455 108.695 423.573 108.764 423.706 108.878L423.803 108.967L423.986 109.16C424.695 109.943 426.069 111.789 426.115 112.01C426.157 112.218 426.11 112.391 425.885 112.799L425.767 113.007C425.272 113.875 425.118 114.435 425.403 115.226C426.605 118.185 428.674 120.265 431.589 121.46C432.341 121.735 432.873 121.625 433.628 121.216L433.887 121.07C434.399 120.774 434.587 120.71 434.815 120.757C435.038 120.804 437.035 122.302 437.766 123.006L437.852 123.091C438.041 123.286 438.144 123.467 438.155 123.601C438.165 123.916 437.85 124.506 437.295 125.15C436.899 125.609 436.386 126.078 436.163 126.233L436.11 126.268C435.391 126.781 434.502 126.803 433.328 126.303L433.104 126.203C429.046 124.505 422.664 118.179 420.821 114.021L420.712 113.764C420.141 112.501 420.094 111.577 420.504 110.905L420.586 110.782C421.061 109.995 422.494 108.756 423.207 108.66L423.298 108.656ZM431.8 107.368L431.905 107.372C436.052 107.835 439.327 111.124 439.793 115.293C439.841 115.717 439.537 116.099 439.116 116.147C438.694 116.194 438.314 115.889 438.267 115.466C437.881 112.014 435.169 109.291 431.735 108.907C431.314 108.86 431.01 108.478 431.056 108.055C431.095 107.701 431.366 107.43 431.699 107.377L431.8 107.368ZM431.863 111.016L431.967 111.03C434.086 111.445 435.743 113.11 436.156 115.241C436.237 115.66 435.965 116.065 435.549 116.147C435.132 116.228 434.729 115.955 434.648 115.536C434.355 114.023 433.178 112.84 431.673 112.545C431.257 112.464 430.985 112.058 431.066 111.64C431.134 111.291 431.425 111.043 431.761 111.017L431.863 111.016Z" fill="#3D84D6"/>
<circle cx="428.08" cy="116.5" r="18.5" stroke="#3D84D6" stroke-linecap="round" stroke-dasharray="2 5"/>
<circle cx="461.433" cy="214.229" r="19.5241" stroke="#86A7E7" stroke-linecap="round" stroke-dasharray="2 5"/>
<path fill-rule="evenodd" clip-rule="evenodd" d="M452.333 204.743L452.226 204.732C451.836 204.717 451.487 204.993 451.418 205.388L451.407 205.495C451.393 205.885 451.668 206.234 452.063 206.303L453.656 206.578L454.621 218.077L454.641 218.25C454.835 219.561 455.963 220.547 457.306 220.547H468.822L468.996 220.541C470.258 220.461 471.305 219.506 471.489 218.238L472.491 211.316L472.508 211.157C472.6 209.892 471.598 208.793 470.307 208.793H455.43L455.182 205.837L455.163 205.72C455.091 205.415 454.844 205.177 454.528 205.123L452.333 204.743ZM457.184 218.957C456.661 218.9 456.243 218.48 456.198 217.945L455.563 210.376H470.307L470.4 210.383C470.733 210.433 470.974 210.744 470.924 211.089L469.923 218.01L469.897 218.134C469.77 218.618 469.332 218.964 468.822 218.964H457.306L457.184 218.957ZM455.531 223.818C455.531 222.935 456.247 222.219 457.129 222.219C458.012 222.219 458.728 222.935 458.728 223.818C458.728 224.7 458.012 225.416 457.129 225.416C456.247 225.416 455.531 224.7 455.531 223.818ZM467.406 223.818C467.406 222.935 468.122 222.219 469.004 222.219C469.887 222.219 470.603 222.935 470.603 223.818C470.603 224.7 469.887 225.416 469.004 225.416C468.122 225.416 467.406 224.7 467.406 223.818ZM467.921 213.486C467.921 213.048 467.567 212.694 467.13 212.694H464.203L464.096 212.701C463.71 212.754 463.412 213.085 463.412 213.486C463.412 213.923 463.766 214.277 464.203 214.277H467.13L467.237 214.27C467.624 214.217 467.921 213.886 467.921 213.486Z" fill="#3D84D6"/>
<circle cx="272.524" cy="301.824" r="19.5241" stroke="#86A7E7" stroke-linecap="round" stroke-dasharray="2 5"/>
<path fill-rule="evenodd" clip-rule="evenodd" d="M281.853 297.771C282.56 298.319 282.994 299.132 283.068 300.018L283.078 300.23V308.788C283.078 310.993 281.336 312.788 279.152 312.904H277.052C276.048 312.884 275.237 312.103 275.163 311.121L275.152 310.972V307.955C275.152 307.627 274.909 307.353 274.583 307.3L274.488 307.289H271.669C271.332 307.3 271.058 307.542 271.015 307.859L271.005 307.955V310.963C271.005 311.025 270.993 311.099 270.984 311.152L270.973 311.174L270.962 311.247C270.836 312.145 270.097 312.83 269.179 312.894L269.042 312.904H267.153C264.947 312.904 263.142 311.174 263.026 308.999V300.23C263.036 299.332 263.427 298.498 264.082 297.918L270.657 292.63C271.997 291.565 273.875 291.523 275.257 292.504L275.427 292.63L281.853 297.771ZM281.6 308.957L281.611 308.788V300.239C281.6 299.787 281.411 299.363 281.084 299.048L280.946 298.931L274.509 293.781C273.707 293.137 272.567 293.106 271.723 293.664L271.563 293.781L265.147 298.953C264.778 299.226 264.557 299.638 264.504 300.07L264.492 300.239V308.788C264.492 310.191 265.59 311.342 266.984 311.426H269.042C269.274 311.426 269.475 311.269 269.505 311.047L269.527 310.857L269.538 310.803V307.955C269.538 306.826 270.403 305.908 271.511 305.822H274.488C275.616 305.822 276.534 306.689 276.619 307.797V310.972C276.619 311.194 276.778 311.385 276.989 311.426H278.951C280.365 311.426 281.515 310.34 281.6 308.957Z" fill="#3D84D6"/>
<circle cx="273.579" cy="647.981" r="19.5241" stroke="#86A7E7" stroke-linecap="round" stroke-dasharray="2 5"/>
<path fill-rule="evenodd" clip-rule="evenodd" d="M268.285 638.816C264.41 640.063 262.682 644.294 263.981 648.329C264.64 650.229 265.712 651.937 267.121 653.339C269.053 655.215 271.176 656.867 273.458 658.27L273.717 658.425C273.965 658.574 274.276 658.571 274.522 658.419L274.764 658.268C277.042 656.867 279.165 655.215 281.091 653.345C282.506 651.937 283.578 650.229 284.232 648.346C285.536 644.296 283.8 640.064 279.924 638.816L279.644 638.732C277.867 638.244 275.978 638.485 274.386 639.386L274.103 639.554L273.825 639.387C272.146 638.434 270.14 638.219 268.285 638.816ZM273.447 640.968L273.655 641.117C273.929 641.313 274.298 641.309 274.567 641.107C275.971 640.056 277.788 639.75 279.452 640.284C282.455 641.251 283.822 644.584 282.768 647.857C282.197 649.503 281.251 651.01 280.009 652.246L279.451 652.775C277.95 654.17 276.326 655.433 274.602 656.546L274.109 656.857L274.259 656.952C272.082 655.612 270.048 654.031 268.203 652.239C266.968 651.01 266.022 649.503 265.445 647.84C264.396 644.581 265.757 641.25 268.758 640.284C270.343 639.774 272.071 640.027 273.447 640.968ZM278.192 642.687C277.786 642.558 277.351 642.782 277.222 643.187C277.092 643.593 277.316 644.027 277.722 644.157C278.52 644.411 279.089 645.13 279.16 645.977C279.196 646.402 279.569 646.717 279.994 646.681C280.419 646.645 280.734 646.272 280.699 645.848C280.575 644.381 279.586 643.133 278.192 642.687Z" fill="#3D84D6"/>
<circle cx="331.624" cy="794.676" r="19.5241" stroke="#86A7E7" stroke-linecap="round" stroke-dasharray="2 5"/>
<path fill-rule="evenodd" clip-rule="evenodd" d="M332.182 784.65C327.318 784.633 323.345 788.503 323.186 793.347L323.181 793.648C323.262 796.023 324.07 798.286 325.493 800.151L325.827 800.587C327.185 802.314 328.799 803.829 330.611 805.079L331.048 805.372L331.111 805.422C331.733 805.869 332.571 805.869 333.192 805.422L333.245 805.379C334.683 804.446 336.009 803.35 337.197 802.113C339.612 799.557 341.067 796.693 341.122 793.784L341.122 793.676C341.139 788.799 337.281 784.814 332.452 784.655L332.182 784.65ZM332.177 786.251C336.165 786.265 339.402 789.451 339.522 793.419L339.526 793.769C339.48 796.208 338.203 798.72 336.043 801.007C334.941 802.154 333.706 803.174 332.367 804.042L332.278 804.109C332.205 804.171 332.098 804.171 332.026 804.109L331.939 804.043C329.944 802.74 328.193 801.096 326.766 799.184C325.616 797.677 324.935 795.876 324.798 793.997L324.778 793.62C324.791 789.623 327.968 786.375 331.923 786.255L332.177 786.251ZM332.152 790.35C330.264 790.35 328.734 791.885 328.734 793.778C328.734 795.671 330.264 797.206 332.152 797.206C334.039 797.206 335.569 795.671 335.569 793.778C335.569 791.885 334.039 790.35 332.152 790.35ZM332.152 791.952C333.158 791.952 333.973 792.769 333.973 793.778C333.973 794.787 333.158 795.605 332.152 795.605C331.146 795.605 330.331 794.787 330.331 793.778C330.331 792.769 331.146 791.952 332.152 791.952Z" fill="#3D84D6"/>
<circle cx="455.101" cy="687.03" r="19.5241" stroke="#86A7E7" stroke-linecap="round" stroke-dasharray="2 5"/>
<path fill-rule="evenodd" clip-rule="evenodd" d="M460.292 677.64C460.243 677.28 459.938 677.003 459.568 677.003C459.164 677.003 458.837 677.333 458.837 677.74V678.554H452.429V677.74L452.422 677.64C452.374 677.28 452.068 677.003 451.698 677.003C451.295 677.003 450.968 677.333 450.968 677.74V678.572C447.974 678.778 446.13 680.718 446.13 683.848V692.733C446.13 696.092 448.197 698.111 451.509 698.111H459.748C463.064 698.111 465.127 696.126 465.127 692.807V683.848C465.136 680.717 463.299 678.778 460.298 678.572V677.74L460.292 677.64ZM458.837 680.026V680.97L458.844 681.07C458.892 681.43 459.198 681.707 459.568 681.707C459.971 681.707 460.298 681.377 460.298 680.97V680.048C462.482 680.23 463.672 681.544 463.665 683.846V684.272H447.592V683.848C447.592 681.548 448.789 680.231 450.968 680.048V680.97L450.974 681.07C451.023 681.43 451.328 681.707 451.698 681.707C452.102 681.707 452.429 681.377 452.429 680.97V680.026H458.837ZM447.592 685.745V692.733C447.592 695.268 448.994 696.638 451.509 696.638H459.748C462.272 696.638 463.665 695.297 463.665 692.807L463.665 685.745H447.592ZM460.696 688.843C460.696 688.436 460.368 688.106 459.965 688.106L459.857 688.113C459.5 688.162 459.225 688.47 459.225 688.843C459.225 689.249 459.552 689.579 459.965 689.579L460.064 689.572C460.421 689.524 460.696 689.216 460.696 688.843ZM455.642 688.106C456.046 688.106 456.373 688.436 456.373 688.843C456.373 689.216 456.098 689.524 455.741 689.572L455.642 689.579C455.23 689.579 454.902 689.249 454.902 688.843C454.902 688.47 455.177 688.162 455.534 688.113L455.642 688.106ZM452.041 688.843C452.041 688.436 451.714 688.106 451.31 688.106L451.202 688.113C450.845 688.162 450.571 688.47 450.571 688.843C450.571 689.249 450.898 689.579 451.301 689.579L451.409 689.572C451.766 689.524 452.041 689.216 452.041 688.843ZM459.965 691.922C460.368 691.922 460.696 692.252 460.696 692.658C460.696 693.031 460.421 693.339 460.064 693.388L459.965 693.395C459.552 693.395 459.225 693.065 459.225 692.658C459.225 692.286 459.5 691.977 459.857 691.929L459.965 691.922ZM456.373 692.658C456.373 692.252 456.046 691.922 455.642 691.922L455.534 691.929C455.177 691.977 454.902 692.286 454.902 692.658C454.902 693.065 455.23 693.395 455.642 693.395L455.741 693.388C456.098 693.339 456.373 693.031 456.373 692.658ZM451.31 691.922C451.714 691.922 452.041 692.252 452.041 692.658C452.041 693.031 451.766 693.339 451.409 693.388L451.301 693.395C450.898 693.395 450.571 693.065 450.571 692.658C450.571 692.286 450.845 691.977 451.202 691.929L451.31 691.922Z" fill="#3D84D6"/>
<path d="M275.019 413.627V426.17H266.107V389.201H280.859C283.686 389.201 286.183 389.726 288.349 390.775C290.533 391.808 292.217 393.289 293.402 395.219C294.604 397.131 295.205 399.306 295.205 401.744C295.205 405.349 293.91 408.235 291.32 410.402C288.747 412.552 285.209 413.627 280.707 413.627H275.019ZM275.019 406.746H280.859C282.586 406.746 283.898 406.314 284.795 405.451C285.709 404.588 286.166 403.369 286.166 401.795C286.166 400.068 285.7 398.689 284.769 397.656C283.838 396.623 282.569 396.099 280.961 396.082H275.019V406.746ZM378.597 419.263H366.384L364.251 426.17H354.73L368.288 389.201H376.667L390.327 426.17H380.755L378.597 419.263ZM368.517 412.383H376.464L372.478 399.56L368.517 412.383ZM481.159 396.082H470.063V426.17H461.151V396.082H450.258V389.201H481.159V396.082ZM565.033 419.263H552.82L550.687 426.17H541.166L554.724 389.201H563.103L576.763 426.17H567.191L565.033 419.263ZM554.953 412.383H562.9L558.914 399.56L554.953 412.383ZM672.521 426.17H663.659V410.732H650.532V426.17H641.62V389.201H650.532V403.877H663.659V389.201H672.521V426.17Z" fill="url(#paint1_linear)"/>
<path d="M272.892 484.244L278.83 472.822H282.236L274.392 487.088V495.572H271.392V487.088L263.548 472.822H266.986L272.892 484.244ZM303.485 484.931C303.485 487.161 303.11 489.108 302.36 490.775C301.61 492.431 300.547 493.697 299.172 494.572C297.797 495.447 296.193 495.885 294.36 495.885C292.568 495.885 290.979 495.447 289.594 494.572C288.209 493.687 287.13 492.431 286.36 490.806C285.599 489.171 285.209 487.28 285.188 485.135V483.494C285.188 481.306 285.568 479.374 286.328 477.697C287.089 476.02 288.162 474.739 289.547 473.853C290.943 472.957 292.537 472.51 294.328 472.51C296.151 472.51 297.755 472.952 299.141 473.838C300.537 474.713 301.61 475.989 302.36 477.666C303.11 479.332 303.485 481.275 303.485 483.494V484.931ZM300.5 483.463C300.5 480.765 299.959 478.697 298.875 477.26C297.792 475.812 296.276 475.088 294.328 475.088C292.433 475.088 290.938 475.812 289.844 477.26C288.761 478.697 288.203 480.697 288.172 483.26V484.931C288.172 487.546 288.719 489.603 289.813 491.103C290.917 492.593 292.433 493.338 294.36 493.338C296.297 493.338 297.797 492.635 298.86 491.228C299.922 489.812 300.469 487.786 300.5 485.15V483.463ZM325.28 472.822V488.291C325.27 490.437 324.593 492.192 323.249 493.556C321.916 494.921 320.103 495.687 317.811 495.853L317.015 495.885C314.525 495.885 312.541 495.213 311.061 493.869C309.582 492.525 308.832 490.676 308.811 488.322V472.822H311.78V488.228C311.78 489.874 312.233 491.155 313.14 492.072C314.046 492.978 315.338 493.431 317.015 493.431C318.713 493.431 320.009 492.978 320.905 492.072C321.811 491.166 322.265 489.89 322.265 488.244V472.822H325.28ZM339.638 486.369H334.295V495.572H331.279V472.822H338.81C341.373 472.822 343.341 473.405 344.716 474.572C346.102 475.739 346.795 477.437 346.795 479.666C346.795 481.082 346.409 482.317 345.638 483.369C344.878 484.421 343.815 485.207 342.451 485.728L347.795 495.385V495.572H344.576L339.638 486.369ZM334.295 483.916H338.904C340.394 483.916 341.576 483.53 342.451 482.76C343.336 481.989 343.779 480.957 343.779 479.666C343.779 478.26 343.357 477.181 342.513 476.431C341.68 475.681 340.472 475.301 338.888 475.291H334.295V483.916ZM378.995 495.572H375.98V485.056H364.511V495.572H361.511V472.822H364.511V482.603H375.98V472.822H378.995V495.572ZM398.463 485.056H388.603V493.119H400.056V495.572H385.603V472.822H399.9V475.291H388.603V482.603H398.463V485.056ZM417.633 489.635H408.102L405.961 495.572H402.868L411.555 472.822H414.18L422.883 495.572H419.805L417.633 489.635ZM409.008 487.166H416.743L412.868 476.525L409.008 487.166ZM430.241 493.119H441.023V495.572H427.226V472.822H430.241V493.119ZM457.131 475.291H449.818V495.572H446.834V475.291H439.537V472.822H457.131V475.291ZM479.27 495.572H476.255V485.056H464.786V495.572H461.786V472.822H464.786V482.603H476.255V472.822H479.27V495.572ZM512.596 484.931C512.596 487.161 512.221 489.108 511.471 490.775C510.721 492.431 509.658 493.697 508.283 494.572C506.908 495.447 505.304 495.885 503.471 495.885C501.679 495.885 500.091 495.447 498.705 494.572C497.32 493.687 496.242 492.431 495.471 490.806C494.71 489.171 494.32 487.28 494.299 485.135V483.494C494.299 481.306 494.679 479.374 495.44 477.697C496.2 476.02 497.273 474.739 498.658 473.853C500.054 472.957 501.648 472.51 503.44 472.51C505.263 472.51 506.867 472.952 508.252 473.838C509.648 474.713 510.721 475.989 511.471 477.666C512.221 479.332 512.596 481.275 512.596 483.494V484.931ZM509.611 483.463C509.611 480.765 509.07 478.697 507.986 477.26C506.903 475.812 505.388 475.088 503.44 475.088C501.544 475.088 500.049 475.812 498.955 477.26C497.872 478.697 497.315 480.697 497.283 483.26V484.931C497.283 487.546 497.83 489.603 498.924 491.103C500.028 492.593 501.544 493.338 503.471 493.338C505.408 493.338 506.908 492.635 507.971 491.228C509.033 489.812 509.58 487.786 509.611 485.15V483.463ZM534.391 472.822V488.291C534.381 490.437 533.704 492.192 532.36 493.556C531.027 494.921 529.214 495.687 526.923 495.853L526.126 495.885C523.636 495.885 521.652 495.213 520.173 493.869C518.694 492.525 517.944 490.676 517.923 488.322V472.822H520.891V488.228C520.891 489.874 521.345 491.155 522.251 492.072C523.157 492.978 524.449 493.431 526.126 493.431C527.824 493.431 529.121 492.978 530.016 492.072C530.923 491.166 531.376 489.89 531.376 488.244V472.822H534.391ZM548.75 486.369H543.406V495.572H540.39V472.822H547.921C550.484 472.822 552.453 473.405 553.828 474.572C555.213 475.739 555.906 477.437 555.906 479.666C555.906 481.082 555.52 482.317 554.75 483.369C553.989 484.421 552.927 485.207 551.562 485.728L556.906 495.385V495.572H553.687L548.75 486.369ZM543.406 483.916H548.015C549.505 483.916 550.687 483.53 551.562 482.76C552.448 481.989 552.89 480.957 552.89 479.666C552.89 478.26 552.468 477.181 551.625 476.431C550.791 475.681 549.583 475.301 548 475.291H543.406V483.916ZM575.528 488.4L575.966 491.4L576.606 488.697L581.106 472.822H583.638L588.028 488.697L588.653 491.447L589.138 488.385L592.669 472.822H595.685L590.169 495.572H587.435L582.747 478.994L582.388 477.26L582.028 478.994L577.169 495.572H574.435L568.935 472.822H571.935L575.528 488.4ZM613.168 485.056H603.308V493.119H614.761V495.572H600.308V472.822H614.605V475.291H603.308V482.603H613.168V485.056ZM632.338 489.635H622.807L620.666 495.572H617.573L626.26 472.822H628.885L637.588 495.572H634.51L632.338 489.635ZM623.713 487.166H631.448L627.573 476.525L623.713 487.166ZM644.946 493.119H655.728V495.572H641.931V472.822H644.946V493.119ZM671.836 475.291H664.523V495.572H661.539V475.291H654.242V472.822H671.836V475.291ZM693.975 495.572H690.96V485.056H679.491V495.572H676.491V472.822H679.491V482.603H690.96V472.822H693.975V495.572Z" fill="black"/>
<line x1="263.314" y1="450.281" x2="698.981" y2="450.281" stroke="url(#paint2_linear)"/>
<line x1="263.314" y1="516.169" x2="698.981" y2="516.169" stroke="url(#paint3_linear)"/>
<path d="M222.11 428.199H160.235V366.12C160.235 361.667 156.58 358 152.142 358H106.062C101.624 358 97.9686 361.667 97.9686 366.12V428.199H57.7629C82.304 458.583 119.638 477.966 161.54 477.966C186.604 477.966 210.1 471.025 230.203 458.976V436.319C230.203 431.866 226.548 428.199 222.11 428.199Z" fill="url(#paint4_linear)" fill-opacity="0.74"/>
<path d="M47.6452 461.137C39.4597 463.197 36.0933 464.412 28 466.049V482.681C28 487.134 31.6551 490.801 36.0933 490.801H97.9682V552.88C97.9682 557.333 101.623 561 106.062 561H152.141C156.58 561 160.235 557.333 160.235 552.88V519.745C152.079 469.717 106.675 446.284 47.6452 461.137Z" fill="url(#paint5_linear)" fill-opacity="0.3"/>
<path d="M160.235 552.749V490.67H222.109C226.548 490.67 230.203 487.003 230.203 482.55V436.319C230.203 431.866 226.548 428.199 222.109 428.199H182.295C143.395 451.642 117.418 494.337 117.418 543.188C117.418 549.213 117.81 555.107 118.593 560.869H152.141C156.58 560.869 160.235 557.202 160.235 552.749Z" fill="url(#paint6_linear)" fill-opacity="0.7"/>
<path d="M138.435 401.089C138.435 386.027 135.955 371.49 131.386 358H106.061C101.623 358 97.9682 361.667 97.9682 366.12V428.199H36.0933C31.655 428.199 28 431.866 28 436.319V482.551C28 487.003 31.655 490.671 36.0933 490.671H97.9682V497.219C122.901 472.859 138.435 438.807 138.435 401.089Z" fill="url(#paint7_linear)" fill-opacity="0.74"/>
</g>
<defs>
<filter id="filter0_d" x="172" y="229" width="462" height="462" filterUnits="userSpaceOnUse" color-interpolation-filters="sRGB">
<feFlood flood-opacity="0" result="BackgroundImageFix"/>
<feColorMatrix in="SourceAlpha" type="matrix" values="0 0 0 0 0 0 0 0 0 0 0 0 0 0 0 0 0 0 127 0"/>
<feOffset/>
<feGaussianBlur stdDeviation="12.5"/>
<feColorMatrix type="matrix" values="0 0 0 0 1 0 0 0 0 1 0 0 0 0 1 0 0 0 0.15 0"/>
<feBlend mode="normal" in2="BackgroundImageFix" result="effect1_dropShadow"/>
<feBlend mode="normal" in="SourceGraphic" in2="effect1_dropShadow" result="shape"/>
</filter>
<filter id="filter1_d" x="261" y="317" width="285" height="284" filterUnits="userSpaceOnUse" color-interpolation-filters="sRGB">
<feFlood flood-opacity="0" result="BackgroundImageFix"/>
<feColorMatrix in="SourceAlpha" type="matrix" values="0 0 0 0 0 0 0 0 0 0 0 0 0 0 0 0 0 0 127 0"/>
<feOffset/>
<feGaussianBlur stdDeviation="12.5"/>
<feColorMatrix type="matrix" values="0 0 0 0 1 0 0 0 0 1 0 0 0 0 1 0 0 0 0.15 0"/>
<feBlend mode="normal" in2="BackgroundImageFix" result="effect1_dropShadow"/>
<feBlend mode="normal" in="SourceGraphic" in2="effect1_dropShadow" result="shape"/>
</filter>
<linearGradient id="paint0_linear" x1="393" y1="852" x2="393" y2="67" gradientUnits="userSpaceOnUse">
<stop stop-color="#F69520"/>
<stop offset="1" stop-color="#FFDD56"/>
</linearGradient>
<linearGradient id="paint1_linear" x1="263.314" y1="423.888" x2="700.326" y2="423.888" gradientUnits="userSpaceOnUse">
<stop stop-color="#2BD0BF"/>
<stop offset="0.810417" stop-color="#1F5CD1"/>
</linearGradient>
<linearGradient id="paint2_linear" x1="263.314" y1="450.781" x2="698.981" y2="450.781" gradientUnits="userSpaceOnUse">
<stop stop-color="#88D8D2"/>
<stop offset="1" stop-color="#1F5CD1"/>
</linearGradient>
<linearGradient id="paint3_linear" x1="263.314" y1="516.669" x2="698.981" y2="516.669" gradientUnits="userSpaceOnUse">
<stop stop-color="#88D8D2"/>
<stop offset="1" stop-color="#1F5CD1"/>
</linearGradient>
<linearGradient id="paint4_linear" x1="57.7275" y1="417.992" x2="230.115" y2="417.992" gradientUnits="userSpaceOnUse">
<stop stop-color="#216ACF"/>
<stop offset="0.1191" stop-color="#1F5CD1"/>
<stop offset="0.7246" stop-color="#2AC1C2"/>
<stop offset="1" stop-color="#2BD0BF"/>
</linearGradient>
<linearGradient id="paint5_linear" x1="141.762" y1="450.943" x2="47.4344" y2="569.101" gradientUnits="userSpaceOnUse">
<stop stop-color="#1F5CD1"/>
<stop offset="0.6865" stop-color="#2BCCC0"/>
<stop offset="1" stop-color="#2AC7C1"/>
</linearGradient>
<linearGradient id="paint6_linear" x1="117.41" y1="494.548" x2="230.154" y2="494.548" gradientUnits="userSpaceOnUse">
<stop stop-color="#1F5CD1"/>
<stop offset="0.1191" stop-color="#1D5CD0"/>
<stop offset="0.7246" stop-color="#29B8C3"/>
<stop offset="1" stop-color="#2CD1C0"/>
</linearGradient>
<linearGradient id="paint7_linear" x1="27.9773" y1="427.62" x2="138.378" y2="427.62" gradientUnits="userSpaceOnUse">
<stop stop-color="#216ACF"/>
<stop offset="0.1191" stop-color="#1F5CD1"/>
<stop offset="0.7246" stop-color="#2AC1C2"/>
<stop offset="1" stop-color="#2BD0BF"/>
</linearGradient>
<clipPath id="clip0">
<rect width="787" height="880" fill="white"/>
</clipPath>
</defs>
</svg>
