<svg width="421" height="681" viewBox="0 0 421 681" fill="none" xmlns="http://www.w3.org/2000/svg">
<g filter="url(#filter0_d)">
<path d="M396 325.5C396 427.949 312.949 511 210.5 511C108.051 511 25 427.949 25 325.5C25 223.051 108.051 140 210.5 140C312.949 140 396 223.051 396 325.5Z" fill="#FFE785"/>
</g>
<path d="M171.5 247.222V195H115M225.5 247V156.5H151.5V20H225.5M275 267V130.5M151.5 389.5V450.5H96V503.5M204.5 410.5V590H151.5V642.5M275 383.5V459H342V559.5H288" stroke="#855B0B" stroke-opacity="0.67" stroke-linecap="round" stroke-dasharray="2 5"/>
<g filter="url(#filter1_d)">
<circle cx="210.5" cy="325.5" r="87.5" fill="#FFDB6B"/>
</g>
<path fill-rule="evenodd" clip-rule="evenodd" d="M238.475 10.0036L238.447 10.0017C237.13 9.94046 235.272 11.5238 234.585 12.6691C233.832 13.6981 233.817 15.0647 234.475 16.6455L234.579 16.8842C236.313 21.1537 242.818 27.6509 247.071 29.4297C248.698 30.191 250.148 30.2049 251.291 29.3821C252.296 28.8078 253.943 26.8968 253.895 25.5396C253.85 24.9812 253.591 24.5254 253.188 24.1104L253.089 24.0127L252.815 23.7594C251.823 22.8725 250.106 21.6098 249.575 21.4982C248.951 21.3682 248.529 21.4846 247.862 21.8523L247.613 21.9936C247.139 22.2671 246.969 22.3139 246.745 22.2319C244.372 21.2578 242.698 19.5761 241.718 17.1639C241.654 16.9852 241.686 16.8291 241.892 16.4507L242.001 16.2577C242.45 15.4726 242.601 15.0287 242.459 14.3452L242.434 14.2566C242.202 13.5804 240.778 11.6725 239.988 10.842L239.861 10.7131C239.449 10.3086 238.996 10.0484 238.475 10.0036ZM238.365 11.464L238.419 11.4744C238.514 11.5012 238.626 11.5669 238.752 11.6752L238.844 11.7591L239.017 11.9415C239.689 12.6835 240.991 14.4334 241.034 14.6426C241.075 14.8391 241.03 15.0032 240.817 15.3901L240.705 15.5874C240.235 16.4097 240.09 16.9399 240.36 17.6897C241.499 20.4936 243.46 22.464 246.221 23.5971C246.934 23.8575 247.439 23.7534 248.154 23.3657L248.399 23.2273C248.884 22.9466 249.062 22.8857 249.278 22.9308C249.49 22.9752 251.381 24.3949 252.075 25.0621L252.156 25.1426C252.335 25.3268 252.432 25.4985 252.443 25.6259C252.453 25.9236 252.154 26.483 251.628 27.0935C251.253 27.5281 250.767 27.9725 250.556 28.1198L250.505 28.1524C249.824 28.6389 248.982 28.6598 247.869 28.1855L247.657 28.0908C243.812 26.4818 237.765 20.488 236.019 16.5481L235.915 16.3046C235.374 15.1076 235.329 14.2325 235.718 13.5958L235.796 13.4792C236.246 12.7335 237.603 11.5589 238.279 11.4685L238.365 11.464ZM246.422 10.2437L246.521 10.248C250.45 10.6867 253.554 13.803 253.995 17.7534C254.04 18.155 253.753 18.5171 253.353 18.5622C252.954 18.6074 252.594 18.3184 252.549 17.9169C252.183 14.6459 249.614 12.0656 246.36 11.7024C245.961 11.6578 245.673 11.2961 245.717 10.8945C245.754 10.5598 246.01 10.3031 246.325 10.2526L246.422 10.2437ZM246.481 13.701L246.579 13.7134C248.588 14.107 250.157 15.6848 250.549 17.704C250.626 18.1006 250.368 18.4848 249.974 18.5621C249.579 18.6394 249.197 18.3805 249.12 17.9839C248.842 16.5497 247.728 15.4292 246.301 15.1497C245.907 15.0724 245.649 14.6882 245.726 14.2916C245.79 13.961 246.066 13.7262 246.385 13.7018L246.481 13.701Z" fill="#3D84D6"/>
<circle cx="243.5" cy="19.5" r="18.5" stroke="#3D84D6" stroke-linecap="round" stroke-dasharray="2 5"/>
<circle cx="274.5" cy="111.5" r="18.5" stroke="#86A7E7" stroke-linecap="round" stroke-dasharray="2 5"/>
<path fill-rule="evenodd" clip-rule="evenodd" d="M265.878 102.511L265.776 102.5C265.407 102.487 265.076 102.748 265.011 103.122L265 103.224C264.987 103.593 265.248 103.924 265.622 103.989L267.131 104.25L268.046 115.146L268.064 115.309C268.248 116.552 269.317 117.486 270.59 117.486H281.502L281.666 117.481C282.863 117.404 283.854 116.5 284.029 115.298L284.978 108.739L284.995 108.589C285.082 107.39 284.132 106.349 282.909 106.349H268.812L268.577 103.547L268.56 103.436C268.491 103.148 268.257 102.923 267.958 102.871L265.878 102.511ZM270.474 115.98C269.979 115.925 269.583 115.528 269.54 115.021L268.938 107.849H282.909L282.997 107.855C283.313 107.902 283.541 108.198 283.494 108.525L282.545 115.083L282.521 115.2C282.4 115.658 281.985 115.986 281.502 115.986H270.59L270.474 115.98ZM268.908 120.585C268.908 119.749 269.586 119.07 270.422 119.07C271.258 119.07 271.937 119.749 271.937 120.585C271.937 121.422 271.258 122.099 270.422 122.099C269.586 122.099 268.908 121.422 268.908 120.585ZM280.16 120.585C280.16 119.749 280.838 119.07 281.675 119.07C282.511 119.07 283.19 119.749 283.19 120.585C283.19 121.422 282.511 122.099 281.675 122.099C280.839 122.099 280.16 121.422 280.16 120.585ZM280.648 110.795C280.648 110.381 280.313 110.045 279.898 110.045H277.125L277.024 110.052C276.658 110.102 276.375 110.415 276.375 110.795C276.375 111.209 276.711 111.545 277.125 111.545H279.898L280 111.538C280.366 111.488 280.648 111.175 280.648 110.795Z" fill="#3D84D6"/>
<circle cx="95.5" cy="194.5" r="18.5" stroke="#86A7E7" stroke-linecap="round" stroke-dasharray="2 5"/>
<path fill-rule="evenodd" clip-rule="evenodd" d="M104.339 190.659C105.009 191.178 105.42 191.949 105.49 192.788L105.5 192.989V201.098C105.5 203.188 103.849 204.888 101.78 204.998H99.7905C98.8395 204.979 98.0705 204.239 98.0005 203.309L97.9905 203.168V200.309C97.9905 199.998 97.7595 199.739 97.4505 199.688L97.3605 199.678H94.6895C94.3705 199.688 94.1105 199.918 94.0705 200.218L94.0605 200.309V203.159C94.0605 203.218 94.0495 203.288 94.0405 203.338L94.0305 203.359L94.0195 203.428C93.9005 204.279 93.2005 204.928 92.3305 204.989L92.2005 204.998H90.4105C88.3205 204.998 86.6105 203.359 86.5005 201.298V192.989C86.5095 192.138 86.8805 191.348 87.5005 190.798L93.7305 185.788C95.0005 184.779 96.7805 184.739 98.0895 185.668L98.2505 185.788L104.339 190.659ZM104.099 201.258L104.11 201.098V192.998C104.099 192.569 103.92 192.168 103.61 191.869L103.48 191.758L97.3805 186.878C96.6205 186.268 95.5405 186.239 94.7405 186.768L94.5895 186.878L88.5095 191.779C88.1605 192.038 87.9505 192.428 87.9005 192.838L87.8895 192.998V201.098C87.8895 202.428 88.9295 203.518 90.2505 203.598H92.2005C92.4205 203.598 92.6105 203.449 92.6395 203.239L92.6605 203.059L92.6705 203.008V200.309C92.6705 199.239 93.4905 198.369 94.5405 198.288H97.3605C98.4295 198.288 99.2995 199.109 99.3805 200.159V203.168C99.3805 203.378 99.5305 203.559 99.7305 203.598H101.589C102.929 203.598 104.019 202.569 104.099 201.258Z" fill="#3D84D6"/>
<circle cx="96.5" cy="522.5" r="18.5" stroke="#86A7E7" stroke-linecap="round" stroke-dasharray="2 5"/>
<path fill-rule="evenodd" clip-rule="evenodd" d="M91.4831 513.815C87.8115 514.997 86.1739 519.006 87.4048 522.83C88.0295 524.63 89.0453 526.248 90.38 527.576C92.211 529.354 94.2225 530.919 96.3849 532.249L96.6304 532.396C96.8656 532.537 97.1598 532.534 97.3926 532.39L97.6218 532.247C99.7812 530.919 101.793 529.354 103.617 527.582C104.958 526.248 105.974 524.63 106.594 522.845C107.829 519.008 106.185 514.998 102.512 513.815L102.246 513.736C100.562 513.273 98.773 513.501 97.2645 514.355L96.9964 514.514L96.733 514.356C95.1419 513.453 93.2404 513.25 91.4831 513.815ZM96.3746 515.854L96.5714 515.995C96.8307 516.181 97.1806 516.177 97.436 515.986C98.766 514.991 100.487 514.701 102.064 515.207C104.91 516.123 106.205 519.281 105.206 522.382C104.665 523.942 103.769 525.37 102.592 526.541L102.064 527.042C100.641 528.364 99.1026 529.561 97.4691 530.616L97.0013 530.91L97.144 531C95.0805 529.731 93.1537 528.232 91.4058 526.534C90.2351 525.37 89.3388 523.942 88.7921 522.366C87.7981 519.278 89.0875 516.122 91.9315 515.206C93.4333 514.723 95.0706 514.963 96.3746 515.854ZM100.87 517.484C100.485 517.361 100.074 517.573 99.951 517.957C99.8281 518.342 100.04 518.753 100.425 518.876C101.181 519.117 101.721 519.798 101.788 520.601C101.822 521.003 102.176 521.302 102.578 521.268C102.981 521.234 103.28 520.881 103.246 520.479C103.129 519.089 102.192 517.906 100.87 517.484Z" fill="#3D84D6"/>
<circle cx="151.5" cy="661.5" r="18.5" stroke="#86A7E7" stroke-linecap="round" stroke-dasharray="2 5"/>
<path fill-rule="evenodd" clip-rule="evenodd" d="M152.029 652C147.42 651.984 143.655 655.651 143.505 660.241L143.5 660.526C143.577 662.776 144.342 664.921 145.69 666.688L146.007 667.101C147.294 668.737 148.823 670.173 150.54 671.357L150.954 671.635L151.014 671.683C151.603 672.106 152.397 672.106 152.986 671.683L153.036 671.642C154.399 670.758 155.655 669.72 156.78 668.547C159.069 666.125 160.448 663.411 160.5 660.655L160.5 660.553C160.516 655.932 156.86 652.156 152.284 652.005L152.029 652ZM152.024 653.517C155.802 653.53 158.87 656.549 158.984 660.309L158.987 660.641C158.943 662.951 157.733 665.332 155.687 667.499C154.643 668.586 153.473 669.553 152.204 670.374L152.119 670.438C152.051 670.497 151.949 670.497 151.881 670.438L151.799 670.376C149.908 669.142 148.249 667.583 146.896 665.772C145.807 664.344 145.162 662.637 145.032 660.857L145.013 660.5C145.026 656.712 148.035 653.635 151.783 653.521L152.024 653.517ZM152 657.401C150.212 657.401 148.762 658.856 148.762 660.649C148.762 662.443 150.212 663.898 152 663.898C153.788 663.898 155.238 662.443 155.238 660.649C155.238 658.856 153.788 657.401 152 657.401ZM152 658.919C152.953 658.919 153.725 659.694 153.725 660.649C153.725 661.605 152.953 662.38 152 662.38C151.047 662.38 150.275 661.605 150.275 660.649C150.275 659.694 151.047 658.919 152 658.919Z" fill="#3D84D6"/>
<circle cx="268.5" cy="559.5" r="18.5" stroke="#86A7E7" stroke-linecap="round" stroke-dasharray="2 5"/>
<path fill-rule="evenodd" clip-rule="evenodd" d="M273.419 550.603C273.373 550.262 273.083 550 272.733 550C272.35 550 272.04 550.312 272.04 550.698V551.469H265.968V550.698L265.962 550.603C265.916 550.262 265.626 550 265.276 550C264.893 550 264.584 550.312 264.584 550.698V551.486C261.747 551.682 260 553.52 260 556.486V564.904C260 568.087 261.958 570 265.096 570H272.904C276.045 570 278 568.119 278 564.974V556.486C278.009 553.519 276.268 551.681 273.425 551.486V550.698L273.419 550.603ZM272.04 552.864V553.759L272.047 553.854C272.092 554.194 272.382 554.457 272.733 554.457C273.115 554.457 273.425 554.144 273.425 553.759V552.885C275.493 553.057 276.622 554.303 276.615 556.484V556.888H261.385V556.486C261.385 554.306 262.519 553.058 264.584 552.885V553.759L264.59 553.854C264.636 554.194 264.925 554.457 265.276 554.457C265.658 554.457 265.968 554.144 265.968 553.759V552.864H272.04ZM261.385 558.283V564.904C261.385 567.307 262.714 568.605 265.096 568.605H272.904C275.295 568.605 276.615 567.334 276.615 564.974L276.615 558.283H261.385ZM273.801 561.218C273.801 560.833 273.491 560.521 273.109 560.521L273.006 560.527C272.668 560.573 272.408 560.865 272.408 561.218C272.408 561.604 272.718 561.916 273.109 561.916L273.203 561.91C273.541 561.863 273.801 561.572 273.801 561.218ZM269.013 560.521C269.395 560.521 269.705 560.833 269.705 561.218C269.705 561.572 269.445 561.863 269.107 561.91L269.013 561.916C268.622 561.916 268.312 561.604 268.312 561.218C268.312 560.865 268.572 560.573 268.91 560.527L269.013 560.521ZM265.6 561.218C265.6 560.833 265.29 560.521 264.908 560.521L264.806 560.527C264.468 560.573 264.207 560.865 264.207 561.218C264.207 561.604 264.517 561.916 264.9 561.916L265.002 561.91C265.34 561.863 265.6 561.572 265.6 561.218ZM273.109 564.136C273.491 564.136 273.801 564.448 273.801 564.834C273.801 565.187 273.541 565.479 273.203 565.525L273.109 565.531C272.718 565.531 272.408 565.219 272.408 564.834C272.408 564.48 272.668 564.189 273.006 564.142L273.109 564.136ZM269.705 564.834C269.705 564.448 269.395 564.136 269.013 564.136L268.91 564.142C268.572 564.189 268.312 564.48 268.312 564.834C268.312 565.219 268.622 565.531 269.013 565.531L269.107 565.525C269.445 565.479 269.705 565.187 269.705 564.834ZM264.908 564.136C265.29 564.136 265.6 564.448 265.6 564.834C265.6 565.187 265.34 565.479 265.002 565.525L264.9 565.531C264.517 565.531 264.207 565.219 264.207 564.834C264.207 564.48 264.468 564.189 264.806 564.142L264.908 564.136Z" fill="#3D84D6"/>
<path d="M176.402 318.211V324H172.289V306.938H179.098C180.402 306.938 181.555 307.18 182.555 307.664C183.562 308.141 184.34 308.824 184.887 309.715C185.441 310.598 185.719 311.602 185.719 312.727C185.719 314.391 185.121 315.723 183.926 316.723C182.738 317.715 181.105 318.211 179.027 318.211H176.402ZM176.402 315.035H179.098C179.895 315.035 180.5 314.836 180.914 314.438C181.336 314.039 181.547 313.477 181.547 312.75C181.547 311.953 181.332 311.316 180.902 310.84C180.473 310.363 179.887 310.121 179.145 310.113H176.402V315.035ZM213.167 320.812H207.531L206.546 324H202.152L208.41 306.938H212.277L218.581 324H214.163L213.167 320.812ZM208.515 317.637H212.183L210.343 311.719L208.515 317.637ZM249.464 310.113H244.342V324H240.229V310.113H235.202V306.938H249.464V310.113ZM277.135 320.812H271.498L270.514 324H266.119L272.377 306.938H276.244L282.549 324H278.131L277.135 320.812ZM272.482 317.637H276.15L274.311 311.719L272.482 317.637ZM315.705 324H311.615V316.875H305.556V324H301.443V306.938H305.556V313.711H311.615V306.938H315.705V324Z" fill="url(#paint0_linear)"/>
<path d="M174.292 340.106L176.333 336.18H177.504L174.808 341.083V344H173.777V341.083L171.081 336.18H172.262L174.292 340.106ZM184.809 340.342C184.809 341.109 184.68 341.778 184.422 342.351C184.164 342.92 183.799 343.355 183.326 343.656C182.854 343.957 182.302 344.107 181.672 344.107C181.056 344.107 180.51 343.957 180.034 343.656C179.558 343.352 179.187 342.92 178.922 342.362C178.661 341.8 178.526 341.15 178.519 340.412V339.848C178.519 339.096 178.65 338.432 178.911 337.855C179.173 337.279 179.541 336.839 180.018 336.534C180.497 336.226 181.045 336.072 181.661 336.072C182.288 336.072 182.839 336.224 183.315 336.529C183.795 336.83 184.164 337.268 184.422 337.845C184.68 338.418 184.809 339.085 184.809 339.848V340.342ZM183.783 339.837C183.783 338.91 183.597 338.199 183.224 337.705C182.852 337.207 182.331 336.958 181.661 336.958C181.009 336.958 180.496 337.207 180.12 337.705C179.747 338.199 179.556 338.887 179.545 339.768V340.342C179.545 341.241 179.733 341.948 180.109 342.464C180.489 342.976 181.009 343.232 181.672 343.232C182.338 343.232 182.854 342.99 183.219 342.507C183.584 342.02 183.772 341.323 183.783 340.417V339.837ZM192.301 336.18V341.497C192.297 342.235 192.065 342.838 191.603 343.307C191.144 343.776 190.521 344.039 189.734 344.097L189.46 344.107C188.604 344.107 187.922 343.876 187.413 343.415C186.905 342.953 186.647 342.317 186.64 341.508V336.18H187.66V341.476C187.66 342.041 187.816 342.482 188.128 342.797C188.439 343.108 188.883 343.264 189.46 343.264C190.043 343.264 190.489 343.108 190.797 342.797C191.109 342.485 191.264 342.047 191.264 341.481V336.18H192.301ZM197.237 340.836H195.4V344H194.363V336.18H196.952C197.833 336.18 198.509 336.38 198.982 336.781C199.458 337.182 199.696 337.766 199.696 338.532C199.696 339.019 199.564 339.444 199.299 339.805C199.038 340.167 198.672 340.437 198.203 340.616L200.04 343.936V344H198.934L197.237 340.836ZM195.4 339.993H196.984C197.496 339.993 197.903 339.861 198.203 339.596C198.508 339.331 198.66 338.976 198.66 338.532C198.66 338.049 198.515 337.678 198.225 337.42C197.938 337.163 197.523 337.032 196.979 337.028H195.4V339.993ZM210.765 344H209.729V340.385H205.786V344H204.755V336.18H205.786V339.542H209.729V336.18H210.765V344ZM217.457 340.385H214.068V343.157H218.005V344H213.037V336.18H217.952V337.028H214.068V339.542H217.457V340.385ZM224.047 341.959H220.771L220.035 344H218.972L221.958 336.18H222.86L225.852 344H224.794L224.047 341.959ZM221.082 341.11H223.741L222.409 337.453L221.082 341.11ZM228.381 343.157H232.087V344H227.345V336.18H228.381V343.157ZM237.625 337.028H235.111V344H234.085V337.028H231.577V336.18H237.625V337.028ZM245.235 344H244.198V340.385H240.256V344H239.225V336.18H240.256V339.542H244.198V336.18H245.235V344ZM256.691 340.342C256.691 341.109 256.562 341.778 256.304 342.351C256.046 342.92 255.681 343.355 255.208 343.656C254.736 343.957 254.184 344.107 253.554 344.107C252.938 344.107 252.392 343.957 251.916 343.656C251.44 343.352 251.069 342.92 250.804 342.362C250.543 341.8 250.408 341.15 250.401 340.412V339.848C250.401 339.096 250.532 338.432 250.793 337.855C251.055 337.279 251.423 336.839 251.9 336.534C252.379 336.226 252.927 336.072 253.543 336.072C254.17 336.072 254.721 336.224 255.197 336.529C255.677 336.83 256.046 337.268 256.304 337.845C256.562 338.418 256.691 339.085 256.691 339.848V340.342ZM255.665 339.837C255.665 338.91 255.479 338.199 255.106 337.705C254.734 337.207 254.213 336.958 253.543 336.958C252.891 336.958 252.378 337.207 252.002 337.705C251.629 338.199 251.438 338.887 251.427 339.768V340.342C251.427 341.241 251.615 341.948 251.991 342.464C252.37 342.976 252.891 343.232 253.554 343.232C254.22 343.232 254.736 342.99 255.101 342.507C255.466 342.02 255.654 341.323 255.665 340.417V339.837ZM264.183 336.18V341.497C264.179 342.235 263.947 342.838 263.485 343.307C263.026 343.776 262.403 344.039 261.616 344.097L261.342 344.107C260.486 344.107 259.804 343.876 259.295 343.415C258.787 342.953 258.529 342.317 258.522 341.508V336.18H259.542V341.476C259.542 342.041 259.698 342.482 260.01 342.797C260.321 343.108 260.765 343.264 261.342 343.264C261.925 343.264 262.371 343.108 262.679 342.797C262.991 342.485 263.146 342.047 263.146 341.481V336.18H264.183ZM269.118 340.836H267.282V344H266.245V336.18H268.834C269.715 336.18 270.391 336.38 270.864 336.781C271.34 337.182 271.578 337.766 271.578 338.532C271.578 339.019 271.446 339.444 271.181 339.805C270.92 340.167 270.554 340.437 270.085 340.616L271.922 343.936V344H270.816L269.118 340.836ZM267.282 339.993H268.866C269.378 339.993 269.785 339.861 270.085 339.596C270.39 339.331 270.542 338.976 270.542 338.532C270.542 338.049 270.397 337.678 270.107 337.42C269.82 337.163 269.405 337.032 268.861 337.028H267.282V339.993ZM278.324 341.535L278.474 342.566L278.694 341.637L280.241 336.18H281.111L282.621 341.637L282.835 342.582L283.002 341.529L284.216 336.18H285.252L283.356 344H282.416L280.805 338.301L280.682 337.705L280.558 338.301L278.888 344H277.948L276.057 336.18H277.088L278.324 341.535ZM291.262 340.385H287.873V343.157H291.81V344H286.842V336.18H291.756V337.028H287.873V339.542H291.262V340.385ZM297.852 341.959H294.576L293.84 344H292.776L295.763 336.18H296.665L299.657 344H298.599L297.852 341.959ZM294.887 341.11H297.546L296.214 337.453L294.887 341.11ZM302.186 343.157H305.892V344H301.15V336.18H302.186V343.157ZM311.429 337.028H308.916V344H307.89V337.028H305.382V336.18H311.429V337.028ZM319.04 344H318.003V340.385H314.061V344H313.03V336.18H314.061V339.542H318.003V336.18H319.04V344Z" fill="black"/>
<line x1="171" y1="332.5" x2="320" y2="332.5" stroke="url(#paint1_linear)"/>
<line x1="171" y1="348.5" x2="320" y2="348.5" stroke="url(#paint2_linear)"/>
<path d="M158.285 315.44H139.387V296.48C139.387 295.12 138.271 294 136.915 294H122.841C121.486 294 120.37 295.12 120.37 296.48V315.44H108.09C115.585 324.72 126.988 330.64 139.786 330.64C147.44 330.64 154.617 328.52 160.757 324.84V317.92C160.757 316.56 159.64 315.44 158.285 315.44Z" fill="url(#paint3_linear)" fill-opacity="0.74"/>
<path d="M105 325.5C102.5 326.129 101.472 326.5 99 327V332.08C99 333.44 100.116 334.56 101.472 334.56H120.37V353.52C120.37 354.88 121.486 356 122.841 356H136.915C138.271 356 139.387 354.88 139.387 353.52V343.4C136.896 328.12 123.029 320.964 105 325.5Z" fill="url(#paint4_linear)" fill-opacity="0.3"/>
<path d="M139.387 353.48V334.52H158.285C159.64 334.52 160.757 333.4 160.757 332.04V317.92C160.757 316.56 159.64 315.44 158.285 315.44H146.125C134.244 322.6 126.31 335.64 126.31 350.56C126.31 352.4 126.43 354.2 126.669 355.96H136.915C138.271 355.96 139.387 354.84 139.387 353.48Z" fill="url(#paint5_linear)" fill-opacity="0.7"/>
<path d="M132.729 307.16C132.729 302.56 131.971 298.12 130.576 294H122.841C121.486 294 120.37 295.12 120.37 296.48V315.44H101.472C100.116 315.44 99 316.56 99 317.92V332.04C99 333.4 100.116 334.52 101.472 334.52H120.37V336.52C127.985 329.08 132.729 318.68 132.729 307.16Z" fill="url(#paint6_linear)" fill-opacity="0.74"/>
<defs>
<filter id="filter0_d" x="0" y="115" width="421" height="421" filterUnits="userSpaceOnUse" color-interpolation-filters="sRGB">
<feFlood flood-opacity="0" result="BackgroundImageFix"/>
<feColorMatrix in="SourceAlpha" type="matrix" values="0 0 0 0 0 0 0 0 0 0 0 0 0 0 0 0 0 0 127 0"/>
<feOffset/>
<feGaussianBlur stdDeviation="12.5"/>
<feColorMatrix type="matrix" values="0 0 0 0 1 0 0 0 0 1 0 0 0 0 1 0 0 0 0.15 0"/>
<feBlend mode="normal" in2="BackgroundImageFix" result="effect1_dropShadow"/>
<feBlend mode="normal" in="SourceGraphic" in2="effect1_dropShadow" result="shape"/>
</filter>
<filter id="filter1_d" x="98" y="213" width="225" height="225" filterUnits="userSpaceOnUse" color-interpolation-filters="sRGB">
<feFlood flood-opacity="0" result="BackgroundImageFix"/>
<feColorMatrix in="SourceAlpha" type="matrix" values="0 0 0 0 0 0 0 0 0 0 0 0 0 0 0 0 0 0 127 0"/>
<feOffset/>
<feGaussianBlur stdDeviation="12.5"/>
<feColorMatrix type="matrix" values="0 0 0 0 1 0 0 0 0 1 0 0 0 0 1 0 0 0 0.15 0"/>
<feBlend mode="normal" in2="BackgroundImageFix" result="effect1_dropShadow"/>
<feBlend mode="normal" in="SourceGraphic" in2="effect1_dropShadow" result="shape"/>
</filter>
<linearGradient id="paint0_linear" x1="171" y1="316" x2="318" y2="316" gradientUnits="userSpaceOnUse">
<stop stop-color="#2BD0BF"/>
<stop offset="0.810417" stop-color="#1F5CD1"/>
</linearGradient>
<linearGradient id="paint1_linear" x1="171" y1="333" x2="320" y2="333" gradientUnits="userSpaceOnUse">
<stop stop-color="#88D8D2"/>
<stop offset="1" stop-color="#1F5CD1"/>
</linearGradient>
<linearGradient id="paint2_linear" x1="171" y1="349" x2="320" y2="349" gradientUnits="userSpaceOnUse">
<stop stop-color="#88D8D2"/>
<stop offset="1" stop-color="#1F5CD1"/>
</linearGradient>
<linearGradient id="paint3_linear" x1="108.079" y1="312.323" x2="160.73" y2="312.323" gradientUnits="userSpaceOnUse">
<stop stop-color="#216ACF"/>
<stop offset="0.1191" stop-color="#1F5CD1"/>
<stop offset="0.7246" stop-color="#2AC1C2"/>
<stop offset="1" stop-color="#2BD0BF"/>
</linearGradient>
<linearGradient id="paint4_linear" x1="133.745" y1="322.386" x2="104.936" y2="358.474" gradientUnits="userSpaceOnUse">
<stop stop-color="#1F5CD1"/>
<stop offset="0.6865" stop-color="#2BCCC0"/>
<stop offset="1" stop-color="#2AC7C1"/>
</linearGradient>
<linearGradient id="paint5_linear" x1="126.307" y1="335.704" x2="160.742" y2="335.704" gradientUnits="userSpaceOnUse">
<stop stop-color="#1F5CD1"/>
<stop offset="0.1191" stop-color="#1D5CD0"/>
<stop offset="0.7246" stop-color="#29B8C3"/>
<stop offset="1" stop-color="#2CD1C0"/>
</linearGradient>
<linearGradient id="paint6_linear" x1="98.9931" y1="315.263" x2="132.712" y2="315.263" gradientUnits="userSpaceOnUse">
<stop stop-color="#216ACF"/>
<stop offset="0.1191" stop-color="#1F5CD1"/>
<stop offset="0.7246" stop-color="#2AC1C2"/>
<stop offset="1" stop-color="#2BD0BF"/>
</linearGradient>
</defs>
</svg>
