<svg width="1000" height="1000" viewBox="0 0 1000 1000" fill="none" xmlns="http://www.w3.org/2000/svg">
<path d="M500 1000C776.142 1000 1000 776.142 1000 500C1000 223.858 776.142 0 500 0C223.858 0 0 223.858 0 500C0 776.142 223.858 1000 500 1000Z" fill="url(#paint0_linear)"/>
<g filter="url(#filter0_d)">
<path d="M732 477.5C732 605.354 628.354 709 500.5 709C372.646 709 269 605.354 269 477.5C269 349.646 372.646 246 500.5 246C628.354 246 732 349.646 732 477.5Z" fill="#FFE785"/>
</g>
<path d="M452.222 379.617V314.434H381.711M519.612 379.34V266.378H427.262V96H519.612M581.386 404.304V233.925M427.262 557.207V633.347H358V699.501M493.404 583.419V807.47H427.262V873M581.386 549.718V643.957H665V769.4H597.61" stroke="#855B0B" stroke-opacity="0.67" stroke-linecap="round" stroke-dasharray="2 5"/>
<g filter="url(#filter1_d)">
<ellipse cx="500.5" cy="477" rx="109.5" ry="109" fill="#FFDB6B"/>
</g>
<path fill-rule="evenodd" clip-rule="evenodd" d="M535.413 83.5004L535.377 83.498C533.734 83.4215 531.415 85.3976 530.558 86.8268C529.618 88.111 529.6 89.8165 530.421 91.7893L530.55 92.0872C532.714 97.4155 540.832 105.524 546.14 107.744C548.17 108.694 549.98 108.711 551.406 107.684C552.66 106.968 554.716 104.583 554.657 102.889C554.6 102.192 554.276 101.623 553.773 101.105L553.65 100.983L553.309 100.667C552.071 99.5605 549.928 97.9847 549.265 97.8454C548.487 97.6831 547.959 97.8284 547.127 98.2873L546.817 98.4636C546.225 98.8049 546.013 98.8633 545.733 98.761C542.771 97.5453 540.683 95.4466 539.459 92.4363C539.38 92.2133 539.419 92.0185 539.676 91.5462L539.812 91.3054C540.373 90.3255 540.561 89.7716 540.385 88.9186L540.353 88.808C540.063 87.9641 538.287 85.5831 537.3 84.5466L537.141 84.3858C536.627 83.8809 536.062 83.5563 535.413 83.5004ZM535.275 85.3228L535.343 85.3358C535.461 85.3693 535.601 85.4513 535.758 85.5864L535.873 85.6912L536.089 85.9188C536.927 86.8448 538.552 89.0286 538.606 89.2897C538.657 89.5349 538.601 89.7398 538.335 90.2226L538.195 90.4688C537.609 91.495 537.428 92.1566 537.765 93.0924C539.186 96.5916 541.633 99.0507 545.08 100.465C545.968 100.79 546.599 100.66 547.491 100.176L547.797 100.003C548.403 99.6529 548.625 99.5769 548.895 99.6332C549.159 99.6886 551.519 101.46 552.385 102.293L552.486 102.393C552.709 102.623 552.831 102.838 552.844 102.997C552.856 103.368 552.484 104.066 551.827 104.828C551.359 105.371 550.752 105.925 550.489 106.109L550.426 106.15C549.575 106.757 548.525 106.783 547.136 106.191L546.871 106.073C542.073 104.065 534.526 96.5846 532.347 91.6677L532.218 91.3638C531.542 89.87 531.486 88.7779 531.971 87.9833L532.068 87.8378C532.63 86.9071 534.324 85.4413 535.168 85.3285L535.275 85.3228ZM545.329 83.8L545.453 83.8054C550.357 84.3528 554.23 88.2419 554.781 93.1719C554.837 93.6731 554.479 94.125 553.98 94.1813C553.482 94.2376 553.032 93.877 552.976 93.3759C552.52 89.2938 549.313 86.0736 545.252 85.6204C544.754 85.5648 544.395 85.1133 544.45 84.6121C544.496 84.1945 544.816 83.874 545.209 83.811L545.329 83.8ZM545.404 88.1146L545.526 88.1301C548.033 88.6212 549.991 90.5903 550.48 93.1102C550.576 93.6052 550.255 94.0846 549.762 94.1811C549.27 94.2776 548.793 93.9545 548.697 93.4596C548.35 91.6697 546.959 90.2714 545.179 89.9225C544.687 89.826 544.365 89.3466 544.461 88.8516C544.541 88.4391 544.886 88.1461 545.283 88.1157L545.404 88.1146Z" fill="#3D84D6"/>
<circle cx="538.832" cy="92.5" r="18.5" stroke="#3D84D6" stroke-linecap="round" stroke-dasharray="2 5"/>
<circle cx="580.371" cy="210.166" r="23.0876" stroke="#86A7E7" stroke-linecap="round" stroke-dasharray="2 5"/>
<path fill-rule="evenodd" clip-rule="evenodd" d="M569.61 198.948L569.484 198.934C569.023 198.918 568.609 199.243 568.528 199.71L568.515 199.837C568.498 200.298 568.824 200.711 569.291 200.792L571.174 201.118L572.316 214.716L572.339 214.92C572.569 216.471 573.902 217.636 575.491 217.636H589.109L589.314 217.63C590.807 217.534 592.045 216.405 592.263 214.905L593.447 206.721L593.468 206.533C593.577 205.036 592.391 203.737 590.865 203.737H573.272L572.979 200.241L572.957 200.103C572.872 199.743 572.579 199.462 572.206 199.397L569.61 198.948ZM575.346 215.756C574.728 215.689 574.234 215.192 574.181 214.559L573.429 205.609H590.865L590.975 205.618C591.369 205.676 591.653 206.045 591.594 206.453L590.41 214.637L590.38 214.783C590.23 215.355 589.712 215.764 589.109 215.764H575.491L575.346 215.756ZM573.392 221.504C573.392 220.461 574.238 219.613 575.282 219.613C576.325 219.613 577.172 220.46 577.172 221.504C577.172 222.548 576.325 223.393 575.282 223.393C574.238 223.393 573.392 222.548 573.392 221.504ZM587.434 221.504C587.434 220.46 588.281 219.613 589.324 219.613C590.368 219.613 591.215 220.46 591.215 221.504C591.215 222.548 590.368 223.393 589.324 223.393C588.281 223.393 587.434 222.548 587.434 221.504ZM588.044 209.286C588.044 208.769 587.625 208.35 587.108 208.35H583.647L583.52 208.359C583.063 208.421 582.711 208.812 582.711 209.286C582.711 209.803 583.13 210.222 583.647 210.222H587.108L587.235 210.213C587.692 210.151 588.044 209.76 588.044 209.286Z" fill="#3D84D6"/>
<circle cx="356.982" cy="313.748" r="23.0876" stroke="#86A7E7" stroke-linecap="round" stroke-dasharray="2 5"/>
<path fill-rule="evenodd" clip-rule="evenodd" d="M368.014 308.955C368.85 309.603 369.363 310.565 369.45 311.612L369.463 311.863V321.983C369.463 324.591 367.402 326.712 364.82 326.85H362.337C361.15 326.826 360.19 325.902 360.103 324.742L360.09 324.566V320.998C360.09 320.61 359.802 320.287 359.417 320.223L359.304 320.21H355.971C355.573 320.223 355.248 320.51 355.198 320.884L355.186 320.998V324.555C355.186 324.628 355.172 324.716 355.161 324.778L355.148 324.804L355.135 324.89C354.986 325.952 354.113 326.762 353.027 326.838L352.865 326.85H350.631C348.022 326.85 345.888 324.804 345.751 322.232V311.863C345.762 310.801 346.225 309.815 346.999 309.128L354.774 302.876C356.359 301.617 358.58 301.567 360.214 302.726L360.415 302.876L368.014 308.955ZM367.714 322.182L367.728 321.983V311.874C367.714 311.339 367.491 310.838 367.104 310.465L366.942 310.326L359.329 304.236C358.381 303.475 357.033 303.439 356.034 304.099L355.846 304.236L348.258 310.353C347.823 310.676 347.561 311.163 347.498 311.674L347.485 311.874V321.983C347.485 323.642 348.782 325.003 350.431 325.102H352.865C353.139 325.102 353.376 324.917 353.412 324.654L353.439 324.43L353.451 324.366V320.998C353.451 319.663 354.475 318.577 355.785 318.476H359.304C360.638 318.476 361.724 319.5 361.825 320.811V324.566C361.825 324.828 362.012 325.054 362.262 325.102H364.582C366.254 325.102 367.614 323.818 367.714 322.182Z" fill="#3D84D6"/>
<circle cx="358.23" cy="723.085" r="23.0876" stroke="#86A7E7" stroke-linecap="round" stroke-dasharray="2 5"/>
<path fill-rule="evenodd" clip-rule="evenodd" d="M351.97 712.247C347.387 713.722 345.344 718.724 346.88 723.496C347.659 725.743 348.927 727.763 350.593 729.42C352.878 731.639 355.388 733.592 358.087 735.251L358.393 735.435C358.687 735.611 359.054 735.608 359.344 735.427L359.63 735.249C362.325 733.592 364.836 731.639 367.113 729.428C368.786 727.763 370.054 725.743 370.827 723.516C372.369 718.727 370.317 713.722 365.733 712.247L365.402 712.148C363.3 711.57 361.067 711.855 359.185 712.92L358.85 713.119L358.521 712.922C356.536 711.795 354.163 711.541 351.97 712.247ZM358.074 714.791L358.32 714.967C358.643 715.199 359.08 715.194 359.399 714.956C361.058 713.713 363.207 713.352 365.174 713.983C368.726 715.126 370.342 719.068 369.096 722.938C368.42 724.884 367.302 726.666 365.833 728.127L365.174 728.753C363.398 730.403 361.478 731.897 359.44 733.213L358.856 733.58L359.034 733.692C356.459 732.109 354.054 730.238 351.873 728.12C350.412 726.666 349.293 724.884 348.611 722.918C347.371 719.064 348.98 715.125 352.529 713.983C354.403 713.38 356.447 713.679 358.074 714.791ZM363.684 716.825C363.204 716.671 362.691 716.936 362.537 717.416C362.384 717.896 362.649 718.409 363.129 718.562C364.073 718.863 364.746 719.713 364.83 720.715C364.872 721.217 365.314 721.589 365.816 721.547C366.318 721.505 366.691 721.064 366.649 720.562C366.503 718.827 365.334 717.351 363.684 716.825Z" fill="#3D84D6"/>
<circle cx="426.869" cy="896.554" r="23.0876" stroke="#86A7E7" stroke-linecap="round" stroke-dasharray="2 5"/>
<path fill-rule="evenodd" clip-rule="evenodd" d="M427.529 884.698C421.777 884.679 417.079 889.255 416.891 894.983L416.885 895.339C416.981 898.146 417.936 900.823 419.619 903.028L420.014 903.544C421.62 905.586 423.529 907.378 425.672 908.855L426.188 909.203L426.263 909.262C426.997 909.789 427.989 909.789 428.724 909.262L428.786 909.21C430.487 908.107 432.055 906.812 433.459 905.349C436.315 902.326 438.036 898.939 438.101 895.499L438.101 895.372C438.12 889.605 433.558 884.892 427.848 884.704L427.529 884.698ZM427.523 886.592C432.238 886.608 436.067 890.376 436.209 895.068L436.213 895.481C436.158 898.365 434.648 901.337 432.094 904.041C430.792 905.397 429.331 906.603 427.747 907.629L427.642 907.708C427.556 907.782 427.43 907.782 427.345 907.708L427.242 907.631C424.882 906.09 422.812 904.145 421.124 901.885C419.765 900.103 418.959 897.973 418.797 895.751L418.773 895.306C418.789 890.579 422.545 886.738 427.223 886.596L427.523 886.592ZM427.493 891.439C425.261 891.439 423.452 893.254 423.452 895.492C423.452 897.731 425.261 899.546 427.493 899.546C429.725 899.546 431.534 897.731 431.534 895.492C431.534 893.254 429.725 891.439 427.493 891.439ZM427.493 893.332C428.682 893.332 429.646 894.299 429.646 895.492C429.646 896.685 428.682 897.652 427.493 897.652C426.304 897.652 425.34 896.685 425.34 895.492C425.34 894.299 426.304 893.332 427.493 893.332Z" fill="#3D84D6"/>
<circle cx="572.883" cy="769.26" r="23.0876" stroke="#86A7E7" stroke-linecap="round" stroke-dasharray="2 5"/>
<path fill-rule="evenodd" clip-rule="evenodd" d="M579.021 758.157C578.964 757.732 578.602 757.404 578.165 757.404C577.688 757.404 577.301 757.794 577.301 758.275V759.237H569.723V758.275L569.715 758.157C569.658 757.732 569.296 757.404 568.859 757.404C568.382 757.404 567.995 757.794 567.995 758.275V759.259C564.455 759.503 562.275 761.797 562.275 765.498V776.004C562.275 779.977 564.719 782.364 568.635 782.364H578.378C582.299 782.364 584.738 780.016 584.738 776.092V765.498C584.75 761.796 582.577 759.502 579.029 759.259V758.275L579.021 758.157ZM577.301 760.979V762.095L577.309 762.213C577.366 762.638 577.728 762.966 578.165 762.966C578.642 762.966 579.029 762.576 579.029 762.095V761.004C581.61 761.219 583.019 762.774 583.011 765.495V766H564.003V765.498C564.003 762.778 565.419 761.22 567.995 761.005V762.095L568.003 762.213C568.06 762.638 568.422 762.966 568.859 762.966C569.336 762.966 569.723 762.576 569.723 762.095V760.979H577.301ZM564.003 767.741V776.004C564.003 779.002 565.661 780.622 568.635 780.622H578.378C581.362 780.622 583.011 779.036 583.011 776.092L583.011 767.741H564.003ZM579.499 771.404C579.499 770.923 579.112 770.534 578.635 770.534L578.507 770.542C578.085 770.599 577.76 770.964 577.76 771.404C577.76 771.885 578.147 772.275 578.635 772.275L578.752 772.267C579.174 772.209 579.499 771.845 579.499 771.404ZM573.523 770.534C574 770.534 574.387 770.923 574.387 771.404C574.387 771.845 574.062 772.209 573.64 772.267L573.523 772.275C573.035 772.275 572.648 771.885 572.648 771.404C572.648 770.964 572.973 770.599 573.395 770.542L573.523 770.534ZM569.264 771.404C569.264 770.923 568.877 770.534 568.4 770.534L568.272 770.542C567.851 770.599 567.526 770.964 567.526 771.404C567.526 771.885 567.912 772.275 568.39 772.275L568.517 772.267C568.939 772.209 569.264 771.845 569.264 771.404ZM578.635 775.045C579.112 775.045 579.499 775.435 579.499 775.916C579.499 776.357 579.174 776.721 578.752 776.779L578.635 776.787C578.147 776.787 577.76 776.397 577.76 775.916C577.76 775.475 578.085 775.111 578.507 775.053L578.635 775.045ZM574.387 775.916C574.387 775.435 574 775.045 573.523 775.045L573.395 775.053C572.973 775.111 572.648 775.475 572.648 775.916C572.648 776.397 573.035 776.787 573.523 776.787L573.64 776.779C574.062 776.721 574.387 776.357 574.387 775.916ZM568.4 775.045C568.877 775.045 569.264 775.435 569.264 775.916C569.264 776.357 568.939 776.721 568.517 776.779L568.39 776.787C567.912 776.787 567.526 776.397 567.526 775.916C567.526 775.475 567.851 775.111 568.272 775.053L568.4 775.045Z" fill="#3D84D6"/>
<path d="M456.607 464.117V469.906H452.494V452.843H459.302C460.607 452.843 461.76 453.085 462.76 453.57C463.767 454.046 464.545 454.73 465.092 455.621C465.646 456.503 465.924 457.507 465.924 458.632C465.924 460.296 465.326 461.628 464.131 462.628C462.943 463.621 461.31 464.117 459.232 464.117H456.607ZM456.607 460.941H459.302C460.099 460.941 460.705 460.742 461.119 460.343C461.541 459.945 461.752 459.382 461.752 458.656C461.752 457.859 461.537 457.222 461.107 456.746C460.677 456.269 460.092 456.027 459.349 456.019H456.607V460.941ZM493.372 466.718H487.735L486.751 469.906H482.357L488.614 452.843H492.482L498.786 469.906H494.368L493.372 466.718ZM488.72 463.542H492.388L490.548 457.625L488.72 463.542ZM529.668 456.019H524.547V469.906H520.434V456.019H515.407V452.843H529.668V456.019ZM557.34 466.718H551.703L550.719 469.906H546.324L552.582 452.843H556.449L562.754 469.906H558.336L557.34 466.718ZM552.687 463.542H556.355L554.515 457.625L552.687 463.542ZM595.909 469.906H591.82V462.781H585.761V469.906H581.648V452.843H585.761V459.617H591.82V452.843H595.909V469.906Z" fill="url(#paint1_linear)"/>
<path d="M454.497 495.947L456.538 492.021H457.709L455.013 496.925V499.841H453.982V496.925L451.285 492.021H452.467L454.497 495.947ZM465.013 496.183C465.013 496.95 464.885 497.619 464.627 498.192C464.369 498.761 464.004 499.197 463.531 499.497C463.058 499.798 462.507 499.948 461.877 499.948C461.261 499.948 460.715 499.798 460.239 499.497C459.762 499.193 459.392 498.761 459.127 498.203C458.865 497.641 458.731 496.991 458.724 496.253V495.689C458.724 494.937 458.855 494.273 459.116 493.697C459.377 493.12 459.746 492.68 460.222 492.375C460.702 492.067 461.25 491.913 461.866 491.913C462.493 491.913 463.044 492.066 463.52 492.37C464 492.671 464.369 493.109 464.627 493.686C464.885 494.259 465.013 494.927 465.013 495.689V496.183ZM463.988 495.678C463.988 494.751 463.801 494.04 463.429 493.546C463.057 493.048 462.536 492.8 461.866 492.8C461.214 492.8 460.7 493.048 460.325 493.546C459.952 494.04 459.761 494.728 459.75 495.609V496.183C459.75 497.082 459.938 497.789 460.314 498.305C460.693 498.817 461.214 499.073 461.877 499.073C462.543 499.073 463.058 498.831 463.424 498.348C463.789 497.861 463.977 497.164 463.988 496.259V495.678ZM472.506 492.021V497.338C472.502 498.076 472.269 498.679 471.807 499.148C471.349 499.617 470.726 499.88 469.938 499.938L469.664 499.948C468.809 499.948 468.127 499.718 467.618 499.256C467.11 498.794 466.852 498.158 466.845 497.349V492.021H467.865V497.317C467.865 497.882 468.021 498.323 468.332 498.638C468.644 498.949 469.088 499.105 469.664 499.105C470.248 499.105 470.694 498.949 471.002 498.638C471.313 498.326 471.469 497.888 471.469 497.322V492.021H472.506ZM477.441 496.677H475.604V499.841H474.568V492.021H477.157C478.038 492.021 478.714 492.221 479.187 492.622C479.663 493.023 479.901 493.607 479.901 494.373C479.901 494.86 479.769 495.285 479.504 495.646C479.242 496.008 478.877 496.278 478.408 496.457L480.245 499.777V499.841H479.139L477.441 496.677ZM475.604 495.834H477.189C477.701 495.834 478.107 495.702 478.408 495.437C478.712 495.172 478.865 494.817 478.865 494.373C478.865 493.89 478.72 493.519 478.43 493.261C478.143 493.004 477.728 492.873 477.184 492.869H475.604V495.834ZM490.97 499.841H489.934V496.226H485.991V499.841H484.96V492.021H485.991V495.383H489.934V492.021H490.97V499.841ZM497.662 496.226H494.273V498.998H498.21V499.841H493.242V492.021H498.156V492.869H494.273V495.383H497.662V496.226ZM504.252 497.8H500.976L500.24 499.841H499.176L502.163 492.021H503.065L506.057 499.841H504.999L504.252 497.8ZM501.287 496.951H503.946L502.614 493.294L501.287 496.951ZM508.586 498.998H512.292V499.841H507.55V492.021H508.586V498.998ZM517.829 492.869H515.316V499.841H514.29V492.869H511.782V492.021H517.829V492.869ZM525.44 499.841H524.403V496.226H520.461V499.841H519.43V492.021H520.461V495.383H524.403V492.021H525.44V499.841ZM536.895 496.183C536.895 496.95 536.767 497.619 536.509 498.192C536.251 498.761 535.886 499.197 535.413 499.497C534.94 499.798 534.389 499.948 533.759 499.948C533.143 499.948 532.597 499.798 532.121 499.497C531.644 499.193 531.274 498.761 531.009 498.203C530.747 497.641 530.613 496.991 530.606 496.253V495.689C530.606 494.937 530.737 494.273 530.998 493.697C531.259 493.12 531.628 492.68 532.104 492.375C532.584 492.067 533.132 491.913 533.748 491.913C534.375 491.913 534.926 492.066 535.402 492.37C535.882 492.671 536.251 493.109 536.509 493.686C536.767 494.259 536.895 494.927 536.895 495.689V496.183ZM535.87 495.678C535.87 494.751 535.683 494.04 535.311 493.546C534.939 493.048 534.418 492.8 533.748 492.8C533.096 492.8 532.582 493.048 532.207 493.546C531.834 494.04 531.643 494.728 531.632 495.609V496.183C531.632 497.082 531.82 497.789 532.196 498.305C532.575 498.817 533.096 499.073 533.759 499.073C534.425 499.073 534.94 498.831 535.306 498.348C535.671 497.861 535.859 497.164 535.87 496.259V495.678ZM544.388 492.021V497.338C544.384 498.076 544.151 498.679 543.689 499.148C543.231 499.617 542.608 499.88 541.82 499.938L541.546 499.948C540.691 499.948 540.008 499.718 539.5 499.256C538.992 498.794 538.734 498.158 538.727 497.349V492.021H539.747V497.317C539.747 497.882 539.903 498.323 540.214 498.638C540.526 498.949 540.97 499.105 541.546 499.105C542.13 499.105 542.576 498.949 542.884 498.638C543.195 498.326 543.351 497.888 543.351 497.322V492.021H544.388ZM549.323 496.677H547.486V499.841H546.45V492.021H549.039C549.92 492.021 550.596 492.221 551.069 492.622C551.545 493.023 551.783 493.607 551.783 494.373C551.783 494.86 551.651 495.285 551.386 495.646C551.124 496.008 550.759 496.278 550.29 496.457L552.127 499.777V499.841H551.021L549.323 496.677ZM547.486 495.834H549.071C549.583 495.834 549.989 495.702 550.29 495.437C550.594 495.172 550.747 494.817 550.747 494.373C550.747 493.89 550.602 493.519 550.312 493.261C550.025 493.004 549.61 492.873 549.066 492.869H547.486V495.834ZM558.529 497.376L558.679 498.407L558.899 497.478L560.446 492.021H561.316L562.825 497.478L563.04 498.423L563.207 497.37L564.421 492.021H565.457L563.561 499.841H562.621L561.01 494.142L560.886 493.546L560.763 494.142L559.092 499.841H558.153L556.262 492.021H557.293L558.529 497.376ZM571.467 496.226H568.078V498.998H572.015V499.841H567.047V492.021H571.961V492.869H568.078V495.383H571.467V496.226ZM578.057 497.8H574.781L574.045 499.841H572.981L575.968 492.021H576.87L579.862 499.841H578.804L578.057 497.8ZM575.092 496.951H577.751L576.419 493.294L575.092 496.951ZM582.391 498.998H586.097V499.841H581.354V492.021H582.391V498.998ZM591.634 492.869H589.121V499.841H588.095V492.869H585.586V492.021H591.634V492.869ZM599.245 499.841H598.208V496.226H594.266V499.841H593.234V492.021H594.266V495.383H598.208V492.021H599.245V499.841Z" fill="black"/>
<line x1="451" y1="486.5" x2="599" y2="486.5" stroke="url(#paint2_linear)"/>
<line x1="451" y1="506.5" x2="599" y2="506.5" stroke="url(#paint3_linear)"/>
<path d="M435.336 464.679H411.752V441.017C411.752 439.32 410.359 437.922 408.668 437.922H391.104C389.412 437.922 388.019 439.32 388.019 441.017V464.679H372.695C382.049 476.26 396.279 483.648 412.25 483.648C421.803 483.648 430.759 481.002 438.421 476.41V467.774C438.421 466.076 437.028 464.679 435.336 464.679Z" fill="url(#paint4_linear)" fill-opacity="0.74"/>
<path d="M368.838 477.233C365.718 478.018 364.435 478.481 361.35 479.105V485.445C361.35 487.142 362.744 488.54 364.435 488.54H388.019V512.202C388.019 513.899 389.412 515.297 391.104 515.297H408.668C410.359 515.297 411.752 513.899 411.752 512.202V499.572C408.644 480.503 391.338 471.572 368.838 477.233Z" fill="url(#paint5_linear)" fill-opacity="0.3"/>
<path d="M411.752 512.152V488.49H435.336C437.028 488.49 438.421 487.092 438.421 485.395V467.773C438.421 466.076 437.028 464.678 435.336 464.678H420.161C405.334 473.614 395.433 489.888 395.433 508.507C395.433 510.804 395.582 513.05 395.88 515.247H408.668C410.359 515.247 411.752 513.849 411.752 512.152Z" fill="url(#paint6_linear)" fill-opacity="0.7"/>
<path d="M403.443 454.346C403.443 448.605 402.498 443.064 400.757 437.922H391.104C389.412 437.922 388.019 439.32 388.019 441.017V464.679H364.435C362.744 464.679 361.35 466.077 361.35 467.774V485.395C361.35 487.092 362.744 488.49 364.435 488.49H388.019V490.986C397.522 481.701 403.443 468.722 403.443 454.346Z" fill="url(#paint7_linear)" fill-opacity="0.74"/>
<defs>
<filter id="filter0_d" x="244" y="221" width="513" height="513" filterUnits="userSpaceOnUse" color-interpolation-filters="sRGB">
<feFlood flood-opacity="0" result="BackgroundImageFix"/>
<feColorMatrix in="SourceAlpha" type="matrix" values="0 0 0 0 0 0 0 0 0 0 0 0 0 0 0 0 0 0 127 0"/>
<feOffset/>
<feGaussianBlur stdDeviation="12.5"/>
<feColorMatrix type="matrix" values="0 0 0 0 1 0 0 0 0 1 0 0 0 0 1 0 0 0 0.15 0"/>
<feBlend mode="normal" in2="BackgroundImageFix" result="effect1_dropShadow"/>
<feBlend mode="normal" in="SourceGraphic" in2="effect1_dropShadow" result="shape"/>
</filter>
<filter id="filter1_d" x="366" y="343" width="269" height="268" filterUnits="userSpaceOnUse" color-interpolation-filters="sRGB">
<feFlood flood-opacity="0" result="BackgroundImageFix"/>
<feColorMatrix in="SourceAlpha" type="matrix" values="0 0 0 0 0 0 0 0 0 0 0 0 0 0 0 0 0 0 127 0"/>
<feOffset/>
<feGaussianBlur stdDeviation="12.5"/>
<feColorMatrix type="matrix" values="0 0 0 0 1 0 0 0 0 1 0 0 0 0 1 0 0 0 0.15 0"/>
<feBlend mode="normal" in2="BackgroundImageFix" result="effect1_dropShadow"/>
<feBlend mode="normal" in="SourceGraphic" in2="effect1_dropShadow" result="shape"/>
</filter>
<linearGradient id="paint0_linear" x1="500" y1="0" x2="500" y2="1000" gradientUnits="userSpaceOnUse">
<stop stop-color="#FED853"/>
<stop offset="1" stop-color="#F79C26"/>
</linearGradient>
<linearGradient id="paint1_linear" x1="451.205" y1="465.377" x2="634.658" y2="465.377" gradientUnits="userSpaceOnUse">
<stop stop-color="#2BD0BF"/>
<stop offset="0.810417" stop-color="#1F5CD1"/>
</linearGradient>
<linearGradient id="paint2_linear" x1="451" y1="487" x2="599" y2="487" gradientUnits="userSpaceOnUse">
<stop stop-color="#88D8D2"/>
<stop offset="1" stop-color="#1F5CD1"/>
</linearGradient>
<linearGradient id="paint3_linear" x1="451" y1="507" x2="599" y2="507" gradientUnits="userSpaceOnUse">
<stop stop-color="#88D8D2"/>
<stop offset="1" stop-color="#1F5CD1"/>
</linearGradient>
<linearGradient id="paint4_linear" x1="372.681" y1="460.788" x2="438.388" y2="460.788" gradientUnits="userSpaceOnUse">
<stop stop-color="#216ACF"/>
<stop offset="0.1191" stop-color="#1F5CD1"/>
<stop offset="0.7246" stop-color="#2AC1C2"/>
<stop offset="1" stop-color="#2BD0BF"/>
</linearGradient>
<linearGradient id="paint5_linear" x1="404.712" y1="473.347" x2="368.758" y2="518.384" gradientUnits="userSpaceOnUse">
<stop stop-color="#1F5CD1"/>
<stop offset="0.6865" stop-color="#2BCCC0"/>
<stop offset="1" stop-color="#2AC7C1"/>
</linearGradient>
<linearGradient id="paint6_linear" x1="395.429" y1="489.968" x2="438.403" y2="489.968" gradientUnits="userSpaceOnUse">
<stop stop-color="#1F5CD1"/>
<stop offset="0.1191" stop-color="#1D5CD0"/>
<stop offset="0.7246" stop-color="#29B8C3"/>
<stop offset="1" stop-color="#2CD1C0"/>
</linearGradient>
<linearGradient id="paint7_linear" x1="361.342" y1="464.458" x2="403.422" y2="464.458" gradientUnits="userSpaceOnUse">
<stop stop-color="#216ACF"/>
<stop offset="0.1191" stop-color="#1F5CD1"/>
<stop offset="0.7246" stop-color="#2AC1C2"/>
<stop offset="1" stop-color="#2BD0BF"/>
</linearGradient>
</defs>
</svg>
